<svg width="353" height="204" viewBox="0 0 353 204" fill="none" xmlns="http://www.w3.org/2000/svg">
  <g opacity="0.29">
    <path d="M121.044 153.439L28.097 154.198L27.5581 110.029L120.193 68.4844L121.044 153.439Z" fill="#C0E6E2" />
    <path opacity="0.24"
      d="M27.6075 116.467C42.4912 110.274 100.815 84.9567 120.254 76.5107L120.193 68.4844L27.5581 110.029L27.6075 116.467Z"
      fill="#8FC6C1" />
    <path
      d="M19.2509 114.879L125.221 67.5693C125.735 67.3395 126.068 66.7995 126.064 66.2026L126.015 59.8532C126.007 58.8083 125.012 58.1056 124.113 58.511L18.1453 106.224C17.6333 106.455 17.3018 106.994 17.3064 107.589L17.3517 113.535C17.36 114.577 18.3522 115.28 19.2509 114.879Z"
      fill="#8FC6C1" />
    <path d="M228.36 153.439L321.307 154.198L321.846 110.029L229.211 68.4844L228.36 153.439Z" fill="#C0E6E2" />
    <path opacity="0.24"
      d="M321.837 116.467C306.954 110.274 248.63 84.9567 229.19 76.5107L229.251 68.4844L321.886 110.029L321.837 116.467Z"
      fill="#8FC6C1" />
    <path
      d="M330.179 114.879L224.209 67.5693C223.695 67.3395 223.362 66.7995 223.366 66.2026L223.415 59.8532C223.423 58.8083 224.418 58.1056 225.317 58.511L331.284 106.224C331.796 106.455 332.128 106.994 332.123 107.589L332.078 113.535C332.07 114.577 331.078 115.28 330.179 114.879Z"
      fill="#8FC6C1" />
    <path d="M269.569 41.5625H76.9487V153.104H269.569V41.5625Z" fill="#D0EFEC" />
    <path d="M117.774 127.293V99.8984H94.6302V127.293H117.774Z" fill="#8FC6C1" />
    <path d="M116.019 125.425V101.766H96.3387V125.425H116.019Z" fill="#DCEFED" />
    <path d="M92.532 127.295V130.441H119.874V127.295H92.532Z" fill="#6DAAA3" />
    <g opacity="0.57">
      <mask id="mask0_5077_108182" style="mask-type:luminance" maskUnits="userSpaceOnUse" x="94" y="96" width="30"
        height="32">
        <path d="M123.206 116.492L110.924 96.7031L94.2695 107.819L106.551 127.608L123.206 116.492Z" fill="white" />
      </mask>
      <g mask="url(#mask0_5077_108182)">
        <path d="M121.084 91.0885L83.2825 116.285L89.2029 125.812L127.005 100.616L121.084 91.0885Z" fill="white" />
      </g>
      <mask id="mask1_5077_108182" style="mask-type:luminance" maskUnits="userSpaceOnUse" x="90" y="103" width="30"
        height="32">
        <path d="M119.884 123.332L107.603 103.543L90.948 114.658L103.23 134.448L119.884 123.332Z" fill="white" />
      </mask>
      <g mask="url(#mask1_5077_108182)">
        <path d="M131.765 102.165L93.9873 127.332L97.664 133.245L135.442 108.078L131.765 102.165Z" fill="white" />
      </g>
    </g>
    <path d="M105.434 125.559H106.956V101.636H105.434V125.559Z" fill="#8FC6C1" />
    <path d="M252.91 127.293V99.8984H229.767V127.293H252.91Z" fill="#8FC6C1" />
    <path d="M251.187 125.425V101.766H231.507V125.425H251.187Z" fill="#DCEFED" />
    <path d="M227.677 127.295V130.441H255.019V127.295H227.677Z" fill="#6DAAA3" />
    <g opacity="0.57">
      <mask id="mask2_5077_108182" style="mask-type:luminance" maskUnits="userSpaceOnUse" x="229" y="96" width="30"
        height="32">
        <path d="M258.341 116.492L246.06 96.7031L229.405 107.819L241.687 127.608L258.341 116.492Z" fill="white" />
      </mask>
      <g mask="url(#mask2_5077_108182)">
        <path d="M256.228 91.0807L218.427 116.277L224.347 125.805L262.149 100.608L256.228 91.0807Z" fill="white" />
      </g>
      <mask id="mask3_5077_108182" style="mask-type:luminance" maskUnits="userSpaceOnUse" x="226" y="103" width="30"
        height="32">
        <path d="M255.037 123.328L242.755 103.539L226.101 114.655L238.382 134.444L255.037 123.328Z" fill="white" />
      </mask>
      <g mask="url(#mask3_5077_108182)">
        <path d="M266.894 102.157L229.116 127.324L232.793 133.238L270.57 108.07L266.894 102.157Z" fill="white" />
      </g>
    </g>
    <path d="M240.587 125.559H242.108V101.636H240.587V125.559Z" fill="#8FC6C1" />
    <path d="M252.232 86.9925V59.5977L229.089 59.5977V86.9925H252.232Z" fill="#8FC6C1" />
    <path d="M250.501 85.1167V61.457L230.821 61.457V85.1167H250.501Z" fill="#DCEFED" />
    <g opacity="0.57">
      <mask id="mask4_5077_108182" style="mask-type:luminance" maskUnits="userSpaceOnUse" x="228" y="56" width="30"
        height="32">
        <path d="M257.679 76.1956L245.397 56.4062L228.743 67.5217L241.024 87.3111L257.679 76.1956Z" fill="white" />
      </mask>
      <g mask="url(#mask4_5077_108182)">
        <path d="M255.567 50.7877L217.765 75.9844L223.685 85.5115L261.487 60.3149L255.567 50.7877Z" fill="white" />
      </g>
      <mask id="mask5_5077_108182" style="mask-type:luminance" maskUnits="userSpaceOnUse" x="225" y="63" width="30"
        height="32">
        <path d="M254.4 83.0237L242.118 63.2344L225.464 74.3499L237.745 94.1392L254.4 83.0237Z" fill="white" />
      </mask>
      <g mask="url(#mask5_5077_108182)">
        <path d="M266.256 61.8559L228.479 87.0234L232.155 92.9369L269.933 67.7694L266.256 61.8559Z" fill="white" />
      </g>
    </g>
    <path d="M239.909 85.2539H241.43V61.3309H239.909V85.2539Z" fill="#8FC6C1" />
    <path d="M117.12 85.9495V58.5547L93.9761 58.5547V85.9495H117.12Z" fill="#8FC6C1" />
    <path d="M115.365 84.0776V60.418L95.6847 60.418V84.0776H115.365Z" fill="#DCEFED" />
    <g opacity="0.57">
      <mask id="mask6_5077_108182" style="mask-type:luminance" maskUnits="userSpaceOnUse" x="93" y="55" width="30"
        height="32">
        <path d="M122.56 75.1526L110.279 55.3633L93.6242 66.4788L105.906 86.2681L122.56 75.1526Z" fill="white" />
      </mask>
      <g mask="url(#mask6_5077_108182)">
        <path d="M120.447 49.7369L82.645 74.9336L88.5655 84.4608L126.367 59.2641L120.447 49.7369Z" fill="white" />
      </g>
      <mask id="mask7_5077_108182" style="mask-type:luminance" maskUnits="userSpaceOnUse" x="90" y="62" width="30"
        height="32">
        <path d="M119.247 81.9808L106.966 62.1914L90.311 73.3069L102.593 93.0962L119.247 81.9808Z" fill="white" />
      </mask>
      <g mask="url(#mask7_5077_108182)">
        <path d="M131.112 60.8051L93.334 85.9727L97.0107 91.8861L134.788 66.7186L131.112 60.8051Z" fill="white" />
      </g>
    </g>
    <path d="M104.78 84.2109H106.302V60.288H104.78V84.2109Z" fill="#8FC6C1" />
    <path d="M162.825 85.9495V58.5547L139.681 58.5547V85.9495H162.825Z" fill="#8FC6C1" />
    <path d="M161.085 84.0776V60.418L141.406 60.418V84.0776H161.085Z" fill="#DCEFED" />
    <g opacity="0.57">
      <mask id="mask8_5077_108182" style="mask-type:luminance" maskUnits="userSpaceOnUse" x="139" y="55" width="30"
        height="32">
        <path d="M168.223 75.1409L155.941 55.3516L139.287 66.467L151.568 86.2564L168.223 75.1409Z" fill="white" />
      </mask>
      <g mask="url(#mask8_5077_108182)">
        <path d="M166.089 49.733L128.287 74.9297L134.208 84.4569L172.01 59.2602L166.089 49.733Z" fill="white" />
      </g>
      <mask id="mask9_5077_108182" style="mask-type:luminance" maskUnits="userSpaceOnUse" x="135" y="62" width="30"
        height="32">
        <path d="M164.919 81.9807L152.637 62.1914L135.983 73.3069L148.264 93.0962L164.919 81.9807Z" fill="white" />
      </mask>
      <g mask="url(#mask9_5077_108182)">
        <path d="M176.762 60.8051L138.985 85.9727L142.662 91.8861L180.439 66.7186L176.762 60.8051Z" fill="white" />
      </g>
    </g>
    <path d="M150.501 84.2109H152.023V60.288H150.501V84.2109Z" fill="#8FC6C1" />
    <path d="M208.585 85.9495V58.5547L185.442 58.5547V85.9495H208.585Z" fill="#8FC6C1" />
    <path d="M206.838 84.0776V60.418L187.159 60.418V84.0776H206.838Z" fill="#DCEFED" />
    <g opacity="0.57">
      <mask id="mask10_5077_108182" style="mask-type:luminance" maskUnits="userSpaceOnUse" x="185" y="55" width="29"
        height="32">
        <path d="M213.996 75.1409L201.715 55.3516L185.06 66.467L197.342 86.2564L213.996 75.1409Z" fill="white" />
      </mask>
      <g mask="url(#mask10_5077_108182)">
        <path d="M211.848 49.733L174.046 74.9297L179.966 84.4569L217.768 59.2602L211.848 49.733Z" fill="white" />
      </g>
      <mask id="mask11_5077_108182" style="mask-type:luminance" maskUnits="userSpaceOnUse" x="181" y="62" width="30"
        height="32">
        <path d="M210.659 81.9768L198.377 62.1875L181.723 73.303L194.004 93.0923L210.659 81.9768Z" fill="white" />
      </mask>
      <g mask="url(#mask11_5077_108182)">
        <path d="M222.544 60.809L184.767 85.9766L188.443 91.89L226.221 66.7225L222.544 60.809Z" fill="white" />
      </g>
    </g>
    <path d="M196.23 84.2109H197.752V60.288H196.23V84.2109Z" fill="#8FC6C1" />
    <path d="M143.181 93.2578H138.139V153.343H143.181V93.2578Z" fill="#6DAAA3" />
    <path d="M211.32 93.2578H206.277V153.343H211.32V93.2578Z" fill="#6DAAA3" />
    <path
      d="M127.347 96.4968L173.457 58.6221C173.969 58.2013 174.694 58.1986 175.209 58.6157L221.014 95.6796C222.068 96.5324 221.493 98.2806 220.155 98.2923L128.239 99.1031C126.894 99.1148 126.294 97.3618 127.347 96.4968Z"
      fill="#8FC6C1" />
    <path d="M185.539 106.551H161.661V152.784H185.539V106.551Z" fill="#6DAAA3" />
    <path d="M183.616 108.707H163.824V152.657H183.616V108.707Z" fill="#8FC6C1" />
    <path d="M198.985 147.902H148.897V153.114H198.985V147.902Z" fill="#8FC6C1" />
    <path d="M191.26 142.691H156.635V147.903H191.26V142.691Z" fill="#6DAAA3" />
    <path
      d="M324.482 155.067C323.441 150.988 318.74 148.365 314.87 149.704C313.646 148.144 312.387 146.552 310.726 145.511C309.065 144.468 306.893 144.066 305.175 145.005C304.575 145.332 304.048 145.81 303.405 146.033C302.829 146.233 302.206 146.212 301.607 146.315C298.065 146.926 296.615 151.279 295.858 154.907"
      fill="#8FC6C1" />
    <path
      d="M226.623 154.718C226.087 152.259 226.886 149.535 228.654 147.798C230.422 146.062 233.095 145.375 235.444 146.055C235.919 146.193 236.403 146.384 236.892 146.313C237.792 146.182 238.337 145.255 238.815 144.457C240.812 141.123 244.034 138.378 247.796 137.878C251.559 137.378 255.73 139.614 256.793 143.379C260.24 141.036 265.596 142.846 267.038 146.841C271.915 145.812 277.239 149.64 278.002 154.725"
      fill="#8FC6C1" />
    <path
      d="M269.151 154.665C270.584 150.151 276.297 147.739 280.377 149.924C281.455 147.781 283.042 145.778 285.221 144.905C287.4 144.032 290.226 144.609 291.453 146.666C291.661 147.014 291.829 147.405 292.143 147.655C292.667 148.072 293.402 147.961 294.064 147.966C297.598 147.992 299.941 151.638 301.624 154.85"
      fill="#8FC6C1" />
    <path
      d="M24.0981 155.001C25.1388 150.922 29.8403 148.299 33.7106 149.638C34.935 148.078 36.1933 146.486 37.8542 145.444C39.5155 144.402 41.6874 144 43.4053 144.938C44.0049 145.266 44.532 145.743 45.1748 145.966C45.7512 146.166 46.3745 146.146 46.974 146.249C50.516 146.86 51.9653 151.212 52.7224 154.841"
      fill="#8FC6C1" />
    <path
      d="M121.907 154.648C122.444 152.188 121.645 149.464 119.877 147.727C118.109 145.991 115.436 145.305 113.087 145.984C112.612 146.122 112.128 146.313 111.639 146.243C110.739 146.112 110.194 145.184 109.716 144.386C107.719 141.053 104.497 138.308 100.735 137.808C96.9719 137.308 92.8005 139.544 91.7377 143.309C88.291 140.966 82.9349 142.776 81.4928 146.771C76.6158 145.742 71.2916 149.57 70.5283 154.654"
      fill="#8FC6C1" />
    <path
      d="M79.4099 154.598C77.9776 150.085 72.2643 147.673 68.1845 149.858C67.1063 147.714 65.5196 145.712 63.3405 144.839C61.1609 143.966 58.3348 144.543 57.1084 146.6C56.9004 146.948 56.7321 147.339 56.4187 147.589C55.8943 148.006 55.1593 147.895 54.4975 147.9C50.9632 147.925 48.62 151.572 46.937 154.784"
      fill="#8FC6C1" />
    <path opacity="0.24" d="M269.578 36.6953H76.8452V52.9623H269.578V36.6953Z" fill="#8FC6C1" />
    <path d="M284.696 44.1094H64.8464V48.1052H284.696V44.1094Z" fill="#6DAAA3" />
    <path d="M284.696 44.3448H64.8464L84.5057 0.214844H265.036L284.696 44.3448Z" fill="#8FC6C1" />
    <path
      d="M36.0022 156.954C37.329 142.009 38.0398 127.005 38.1324 111.998C39.1679 111.978 40.2029 111.958 41.2384 111.938C41.9651 126.195 42.6924 140.453 43.4191 154.71"
      fill="#519188" />
    <path
      d="M37.7124 139.846C32.7278 130.383 29.4823 122.284 28.1272 115.926C34.5086 124.741 39.332 132.689 42.068 138.896"
      fill="#519188" />
    <path
      d="M42.0874 134.511C45.8162 127.021 49.5449 119.53 53.2737 112.039C49.5038 116.506 45.7338 120.973 41.9634 125.44"
      fill="#519188" />
    <path
      d="M36.3567 120.016C33.3444 121.249 30.1982 122.506 26.9692 122.232C23.7402 121.959 20.4242 119.652 20.0629 116.324C11.6342 116.194 3.60745 110.036 1.04647 101.734C-1.51399 93.4312 1.58327 83.6073 8.38459 78.4591C9.41598 77.6781 10.5431 76.9737 11.2919 75.9028C12.2621 74.5148 12.4535 72.7273 12.8905 71.0755C14.6944 64.2504 21.6177 59.2954 28.4329 59.9513C29.8184 60.0849 31.2029 60.4216 32.5852 60.262C34.4437 60.0476 36.0829 58.9671 37.8024 58.2074C43.7592 55.5756 51.2038 57.0812 55.7612 61.8405C60.3186 66.5992 61.6999 74.3095 59.0932 80.4397C64.9439 80.5866 69.862 86.1167 70.5671 92.1225C71.2717 98.1277 68.3767 104.167 64.0432 108.233C66.0386 112.087 64.5497 117.264 61.1925 119.922C57.8353 122.581 53.0798 122.883 49.1215 121.345C47.9208 120.878 46.6465 120.246 45.4133 120.612C44.684 120.828 44.0927 121.367 43.4349 121.756C40.9053 123.257 37.2656 122.155 35.9177 119.482"
      fill="#6DAAA3" />
    <g opacity="0.5">
      <path
        d="M11.2925 75.9082C12.2626 74.5202 12.4546 72.7327 12.891 71.0808C14.6949 64.2558 21.6182 59.3008 28.4334 59.9567C29.4283 60.0525 30.4236 60.2483 31.4175 60.2945C31.4092 60.3924 31.4092 60.4898 31.3964 60.5882C22.6841 61.3681 15.2858 69.8551 15.4391 78.8933C15.4736 80.9122 15.8287 82.9886 15.243 84.915C14.8416 86.2354 14.0284 87.3728 13.4046 88.5975C11.1453 93.0274 11.5627 98.7762 14.436 102.808C17.3094 106.84 22.4967 108.956 27.2595 108.039C27.9846 113.227 31.3475 117.937 35.9213 120.198C33.0412 121.371 30.0438 122.498 26.9692 122.238C23.7402 121.965 20.4242 119.658 20.0629 116.33C11.6337 116.2 3.60694 110.042 1.04647 101.739C-1.51399 93.4371 1.58327 83.6132 8.38459 78.4645C9.41598 77.6835 10.5436 76.9791 11.2925 75.9082Z"
        fill="#519188" />
    </g>
    <path
      d="M315.716 157.86C314.299 141.892 313.539 125.862 313.44 109.827C312.334 109.805 311.228 109.784 310.122 109.762C309.345 124.995 308.568 140.228 307.792 155.462"
      fill="#519188" />
    <path
      d="M313.934 139.581C319.26 129.471 322.728 120.817 324.175 114.023C317.357 123.442 312.203 131.934 309.28 138.566"
      fill="#519188" />
    <path
      d="M309.26 133.87C305.276 125.866 301.292 117.863 297.309 109.859C301.337 114.632 305.365 119.405 309.393 124.178"
      fill="#519188" />
    <path
      d="M315.447 120.163C318.751 121.233 322.198 122.316 325.618 121.763C329.038 121.209 332.396 118.482 332.528 114.906C341.5 114.084 349.584 106.869 351.682 97.8151C353.779 88.7604 349.732 78.5444 342.093 73.6112C340.934 72.8627 339.68 72.2041 338.8 71.1236C337.661 69.7239 337.321 67.8342 336.73 66.1095C334.289 58.9839 326.535 54.2661 319.323 55.519C317.858 55.7738 316.408 56.2451 314.923 56.1877C312.926 56.11 311.097 55.0923 309.207 54.4225C302.66 52.1019 294.842 54.3113 290.348 59.7526C285.854 65.1934 284.968 73.5213 288.212 79.842C281.988 80.474 277.169 86.766 276.874 93.2229C276.58 99.6792 280.124 105.879 285.051 109.859C283.218 114.128 285.198 119.523 288.977 122.083C292.756 124.642 297.847 124.578 301.948 122.618C303.192 122.023 304.502 121.246 305.843 121.536C306.636 121.707 307.308 122.233 308.038 122.595C310.848 123.988 314.643 122.519 315.875 119.561"
      fill="#6DAAA3" />
    <g opacity="0.5">
      <path
        d="M338.796 71.1264C337.656 69.7262 337.316 67.8371 336.725 66.1123C334.284 58.9867 326.53 54.2689 319.318 55.5218C318.265 55.7048 317.22 55.9942 316.164 56.124C316.181 56.2278 316.188 56.3315 316.209 56.4352C325.552 56.5587 334.08 65.0004 334.604 74.6435C334.721 76.7975 334.5 79.0389 335.271 81.044C335.799 82.4187 336.752 83.5646 337.51 84.8185C340.254 89.3554 340.246 95.5144 337.491 100.044C334.736 104.574 329.37 107.25 324.225 106.66C323.847 112.247 320.622 117.54 315.92 120.319C319.078 121.336 322.357 122.293 325.614 121.766C329.034 121.212 332.392 118.485 332.524 114.909C341.496 114.087 349.58 106.873 351.677 97.8179C353.775 88.7633 349.727 78.5473 342.089 73.6135C340.93 72.8655 339.675 72.2069 338.796 71.1264Z"
        fill="#519188" />
    </g>
    <path d="M330.396 153.195H15.7588V158.629H330.396V153.195Z" fill="#6DAAA3" />
  </g>
  <path
    d="M210.923 189.635C211.144 191.068 211.366 192.5 211.587 193.932C211.63 194.211 211.673 194.494 211.639 194.774C211.505 195.868 210.307 196.462 209.844 197.456C209.795 197.562 209.753 197.677 209.763 197.794C209.795 198.168 210.265 198.28 210.628 198.294C211.69 198.335 212.752 198.376 213.814 198.417C214.215 198.432 214.689 198.411 214.912 198.067C215.012 197.911 215.038 197.719 215.062 197.533C215.404 194.827 215.747 192.12 216.09 189.414"
    fill="#F7B094" />
  <path
    d="M247.69 189.635C247.465 191.068 247.24 192.5 247.015 193.932C246.971 194.211 246.927 194.494 246.962 194.774C247.098 195.868 248.316 196.462 248.786 197.456C248.836 197.562 248.878 197.677 248.868 197.794C248.836 198.168 248.358 198.28 247.989 198.294C246.91 198.335 245.831 198.376 244.752 198.417C244.345 198.432 243.863 198.411 243.637 198.067C243.534 197.911 243.508 197.719 243.484 197.533C243.136 194.827 242.787 192.12 242.439 189.414"
    fill="#F7B094" />
  <path
    d="M199.217 202.71C202.068 202.822 204.403 202.91 207.254 203.022C208.126 203.056 209.043 203.08 209.817 202.664C210.244 202.434 210.67 202.065 211.142 202.163C211.507 202.239 211.763 202.578 212.097 202.746C212.391 202.894 212.729 202.904 213.056 202.911C214.053 202.933 215.049 202.955 216.046 202.977C216.375 202.985 216.737 202.98 216.986 202.756C217.277 202.494 217.295 202.039 217.277 201.64C217.208 200.06 216.931 198.491 216.456 196.987C216.348 196.645 216.188 196.263 215.856 196.156C215.55 196.058 215.233 196.236 214.954 196.398C213.825 197.054 212.341 197.518 211.299 196.723C211.028 196.517 210.805 196.235 210.494 196.102C210.15 195.955 209.76 196.016 209.394 196.086C206.236 196.686 203.156 197.721 200.261 199.154C199.603 199.479 198.924 199.853 198.534 200.489C198.144 201.125 198.173 202.097 198.783 202.51"
    fill="#38303B" />
  <path
    d="M260.56 202.765C257.518 202.884 255.025 202.979 251.983 203.098C251.052 203.135 250.073 203.16 249.247 202.716C248.792 202.471 248.337 202.077 247.834 202.182C247.444 202.264 247.171 202.624 246.814 202.805C246.5 202.963 246.139 202.973 245.791 202.981C244.727 203.004 243.663 203.027 242.6 203.051C242.249 203.058 241.862 203.054 241.597 202.815C241.286 202.535 241.267 202.05 241.286 201.624C241.36 199.938 241.656 198.263 242.162 196.658C242.277 196.293 242.448 195.886 242.802 195.772C243.129 195.667 243.467 195.857 243.765 196.03C244.97 196.729 246.553 197.224 247.665 196.376C247.954 196.156 248.193 195.855 248.525 195.713C248.892 195.557 249.308 195.622 249.699 195.696C253.069 196.337 256.356 197.441 259.446 198.97C260.148 199.317 260.872 199.716 261.288 200.395C261.705 201.074 261.674 202.111 261.023 202.551"
    fill="#38303B" />
  <path
    d="M245.421 113.141C244.87 136.811 247.524 190.823 247.524 190.823L242.144 191.431C242.144 191.431 236.734 158.81 235.789 153.78C234.844 148.75 229.143 117.395 229.143 117.395L215.635 190.807L210.623 190.663C210.623 190.663 213.994 134.465 214.693 109.278C214.773 106.38 218.022 94.443 218.022 94.443L239.901 90.2344L242.489 97.5105C242.606 97.5148 245.507 109.443 245.421 113.141Z"
    fill="#38303B" />
  <path
    d="M242.787 191.825L247.53 191.502C248.464 191.439 249.172 190.604 249.11 189.638C249.049 188.672 248.242 187.941 247.306 188.004L242.564 188.326C241.629 188.39 240.921 189.224 240.983 190.19C241.044 191.156 241.852 191.888 242.787 191.825Z"
    fill="#38303B" />
  <path
    d="M210.825 192.72L215.586 192.885C216.535 192.918 217.325 192.138 217.337 191.157C217.349 190.204 216.621 189.417 215.7 189.385L210.938 189.22C209.989 189.187 209.2 189.967 209.187 190.948C209.176 191.901 209.903 192.688 210.825 192.72Z"
    fill="#38303B" />
  <path
    d="M216.7 64.163C216.122 57.1544 216.11 50.1044 216.665 43.0942C216.967 39.2883 217.465 35.3967 219.308 32.0036C221.152 28.61 224.607 25.7718 228.627 25.5419C233.57 25.2589 238.059 29.134 239.332 33.6682C239.9 35.692 240.686 41.0859 240.815 43.1761C241.333 51.6121 241.582 58.3014 241.137 67.1619C241.122 67.4439 239.444 67.089 239.269 67.3183C239.094 67.5481 238.799 67.6615 238.519 67.7625C237.496 68.1344 236.473 68.5068 235.45 68.8787"
    fill="#E66E60" />
  <g opacity="0.32">
    <path
      d="M229.314 30.5041C229.314 29.338 229.314 28.1724 229.314 27.0062C229.314 26.6232 228.737 26.6227 228.737 27.0062C228.737 28.1724 228.737 29.338 228.737 30.5041C228.737 30.8872 229.314 30.8877 229.314 30.5041Z"
      fill="#F7B094" />
    <path
      d="M218.758 60.9973C218.33 56.013 218.173 51.0084 218.288 46.006C218.297 45.623 217.721 45.623 217.712 46.006C217.597 51.0084 217.754 56.0135 218.182 60.9973C218.214 61.376 218.791 61.3792 218.758 60.9973Z"
      fill="#F7B094" />
    <path
      d="M220.48 59.3246C220.249 56.2762 220.145 53.2199 220.167 50.1625C220.169 49.7794 219.594 49.7789 219.591 50.1625C219.569 53.2199 219.673 56.2762 219.904 59.3246C219.933 59.7039 220.509 59.7071 220.48 59.3246Z"
      fill="#F7B094" />
    <path
      d="M239.836 62.7703C239.61 56.4948 239.36 50.2204 239.084 43.947C239.067 43.5656 238.491 43.5635 238.508 43.947C238.784 50.2204 239.034 56.4948 239.26 62.7703C239.274 63.1517 239.85 63.1538 239.836 62.7703Z"
      fill="#F7B094" />
    <path
      d="M237.759 60.104C237.841 57.9377 237.789 55.7687 237.601 53.6093C237.568 53.2311 236.992 53.2273 237.025 53.6093C237.213 55.7687 237.265 57.9377 237.184 60.104C237.169 60.4865 237.745 60.4859 237.759 60.104Z"
      fill="#F7B094" />
  </g>
  <path
    d="M232.974 57.9333C232.182 54.9349 231.578 51.1146 231.425 49.1186C231.417 49.0207 231.409 48.9191 231.372 48.8371C231.308 48.6956 231.18 48.6531 231.065 48.6286C230.106 48.4286 229.12 48.6951 228.167 48.4477C227.387 48.2456 226.611 47.7024 225.837 47.9503C225.759 47.9753 225.677 48.0125 225.625 48.1003C225.562 48.2051 225.555 48.3562 225.552 48.4951C225.54 49.1106 225.546 49.7261 225.553 50.3416C225.573 52.2212 224.676 57.1635 224.696 59.043"
    fill="#F7B094" />
  <path
    d="M225.52 47.5456C225.572 47.4579 225.654 47.4206 225.732 47.3956C226.506 47.1477 227.282 47.6909 228.062 47.893C229.015 48.1404 230.002 47.8739 230.96 48.0739C231.076 48.0978 231.203 48.1404 231.267 48.2825C231.304 48.3644 231.312 48.4665 231.32 48.5639C231.396 49.5518 231.471 50.5397 231.547 51.5277C230.735 52.2235 229.835 52.681 228.898 52.7475C227.61 52.839 226.268 52.0889 225.457 50.6642C225.454 50.3722 225.451 50.0796 225.448 49.7875C225.441 49.172 225.434 48.5564 225.447 47.9409C225.45 47.8015 225.457 47.6504 225.52 47.5456Z"
    fill="#E89C82" />
  <path
    d="M221.347 41.1182C221.347 47.1628 225.382 52.063 228.978 52.063C232.573 52.063 236.609 47.1628 236.609 41.1182C236.609 35.0736 232.573 30.5 228.978 30.5C225.382 30.5 221.347 35.0736 221.347 41.1182Z"
    fill="#F7B094" />
  <path d="M221.739 43.4768C220.8 43.181 219.986 42.3351 219.909 41.3227C219.832 40.3103 220.666 39.2607 221.646 39.323"
    fill="#F7B094" />
  <path
    d="M235.898 43.4768C236.838 43.181 237.651 42.3351 237.729 41.3227C237.805 40.3103 236.972 39.2607 235.991 39.323"
    fill="#F7B094" />
  <path
    d="M232.704 39.534C232.704 40.133 232.961 40.6187 233.277 40.6187C233.593 40.6187 233.849 40.133 233.849 39.534C233.849 38.9349 233.593 38.4492 233.277 38.4492C232.961 38.4498 232.704 38.9355 232.704 39.534Z"
    fill="#38303B" />
  <path
    d="M224.658 39.534C224.658 40.133 224.914 40.6187 225.23 40.6187C225.546 40.6187 225.802 40.133 225.802 39.534C225.802 38.9349 225.546 38.4492 225.23 38.4492C224.914 38.4498 224.658 38.9355 224.658 39.534Z"
    fill="#38303B" />
  <g opacity="0.54">
    <path
      d="M222.712 44.0557C222.712 44.9947 223.465 45.756 224.393 45.756C225.322 45.756 226.074 44.9947 226.074 44.0557C226.074 43.1168 225.322 42.3555 224.393 42.3555C223.465 42.3549 222.712 43.1162 222.712 44.0557Z"
      fill="#E66E60" />
  </g>
  <g opacity="0.54">
    <path
      d="M231.871 44.0557C231.871 44.9947 232.624 45.756 233.552 45.756C234.48 45.756 235.233 44.9947 235.233 44.0557C235.233 43.1168 234.48 42.3555 233.552 42.3555C232.624 42.3549 231.871 43.1162 231.871 44.0557Z"
      fill="#E66E60" />
  </g>
  <path
    d="M229.016 40.0201C229.208 40.9495 229.4 41.8795 229.592 42.8089C229.638 43.0302 229.684 43.2515 229.729 43.4728C229.753 43.5909 229.778 43.709 229.802 43.8271C229.823 43.9266 229.826 44.0942 229.875 44.1814C229.869 44.2836 229.894 44.2974 229.949 44.2235C229.893 44.2277 229.837 44.2309 229.781 44.233C229.669 44.2378 229.556 44.2389 229.443 44.2368C229.213 44.232 228.984 44.2128 228.756 44.1777C228.431 44.1277 228.292 44.64 228.619 44.6906C228.892 44.7326 229.166 44.7634 229.443 44.7688C229.665 44.7736 229.963 44.806 230.169 44.7081C230.373 44.6118 230.432 44.4054 230.401 44.1894C230.358 43.9021 230.284 43.6159 230.226 43.3318C229.988 42.1811 229.751 41.0299 229.513 39.8786C229.443 39.544 228.947 39.6855 229.016 40.0201Z"
    fill="#E89C82" />
  <path
    d="M234.819 36.8313C234.821 36.8238 234.828 36.8174 234.828 36.8094L234.829 36.8105C234.829 36.8099 234.829 36.8099 234.828 36.8094C234.828 36.8089 234.829 36.8084 234.829 36.8078C234.831 36.7588 234.804 36.7119 234.772 36.6698C234.634 36.4907 234.396 36.3666 234.147 36.276C233.744 36.1283 233.295 36.0575 232.846 36.0628C232.398 36.058 231.947 36.1283 231.544 36.276C231.296 36.3666 231.058 36.4907 230.92 36.6698C230.887 36.7124 230.86 36.7593 230.863 36.8078C230.863 36.8084 230.863 36.8089 230.863 36.8094C230.863 36.8099 230.863 36.8099 230.862 36.8105L230.863 36.8094C230.864 36.8174 230.871 36.8238 230.873 36.8313C230.875 36.8435 230.878 36.8547 230.887 36.8659C230.936 36.9458 231.067 36.9965 231.19 36.9938C231.342 36.9901 231.48 36.9309 231.616 36.8798C231.999 36.7375 232.42 36.6597 232.846 36.6394C233.272 36.6597 233.692 36.7375 234.075 36.8798C234.211 36.9304 234.349 36.9896 234.501 36.9938C234.625 36.997 234.755 36.9458 234.804 36.8659C234.813 36.8547 234.817 36.843 234.819 36.8313Z"
    fill="#E66E60" />
  <path
    d="M227.216 36.8313C227.218 36.8238 227.225 36.8174 227.226 36.8094L227.227 36.8105C227.227 36.8099 227.226 36.8099 227.226 36.8094C227.226 36.8089 227.226 36.8084 227.226 36.8078C227.229 36.7588 227.201 36.7119 227.169 36.6698C227.031 36.4907 226.793 36.3666 226.545 36.276C226.142 36.1283 225.692 36.0575 225.243 36.0628C224.795 36.058 224.344 36.1283 223.941 36.276C223.693 36.3666 223.455 36.4907 223.317 36.6698C223.285 36.7124 223.257 36.7593 223.26 36.8078C223.26 36.8084 223.261 36.8089 223.261 36.8094C223.26 36.8099 223.26 36.8099 223.26 36.8105L223.261 36.8094C223.261 36.8174 223.268 36.8238 223.27 36.8313C223.272 36.8435 223.275 36.8547 223.284 36.8659C223.334 36.9458 223.464 36.9965 223.587 36.9938C223.739 36.9901 223.877 36.9309 224.014 36.8798C224.396 36.7375 224.817 36.6597 225.243 36.6394C225.669 36.6597 226.09 36.7375 226.472 36.8798C226.608 36.9304 226.746 36.9896 226.898 36.9938C227.022 36.997 227.152 36.9458 227.201 36.8659C227.211 36.8547 227.215 36.843 227.216 36.8313Z"
    fill="#E66E60" />
  <path
    d="M225.934 46.5903C227.082 47.7543 228.417 48.1203 230 47.7687C230.842 47.5814 231.584 46.9648 231.816 46.5312C229.866 47.2255 227.833 47.2782 225.906 46.5195"
    fill="#E66E60" />
  <path
    d="M226.002 46.5548C227.26 47.3051 229.144 47.5572 230.524 47.1437C230.899 47.0312 231.498 46.8228 231.947 46.4263C229.981 47.0312 227.724 46.9875 225.824 46.3906L226.002 46.5548Z"
    fill="white" />
  <path
    d="M275.446 32.3918C273.36 31.6018 271.775 29.8361 270.807 27.8523C269.838 25.8685 269.424 23.6665 269.122 21.4811C268.969 20.3772 268.903 19.0913 269.721 18.3146C270.142 17.914 270.724 17.7331 271.284 17.5655C273.889 16.7835 275.82 16.3882 278.527 16.1281C281.233 15.8679 284.754 15.7769 287.128 17.0612C287.479 17.2511 287.832 17.4746 288.034 17.8161C288.236 18.1576 288.26 18.5715 288.277 18.9679C288.392 21.6555 288.41 24.4278 287.415 26.942C286.42 29.4557 284.184 31.6768 281.462 31.9019"
    fill="#38303B" />
  <path
    d="M285.84 46.0319C285.437 43.8406 284.266 37.9865 283.864 35.7952C283.844 35.6883 283.823 35.5765 283.761 35.4898C283.655 35.3409 283.465 35.31 283.295 35.2978C281.879 35.1978 280.464 35.618 279.051 35.4648C277.896 35.3398 276.715 34.8365 275.609 35.2095C275.496 35.2472 275.381 35.2988 275.312 35.4026C275.23 35.5265 275.233 35.6947 275.242 35.8495C275.279 36.5326 275.344 37.2135 275.409 37.8945C275.608 39.9741 276.024 45.1462 276.224 47.2257"
    fill="#86514D" />
  <path
    d="M275.312 35.4026C275.381 35.2983 275.497 35.2472 275.608 35.2095C276.714 34.8365 277.895 35.3398 279.051 35.4648C280.464 35.6175 281.879 35.1972 283.295 35.2978C283.465 35.31 283.655 35.3409 283.761 35.4898C283.822 35.5765 283.844 35.6877 283.864 35.7952C284.063 36.8799 284.262 37.9647 284.462 39.0494C283.341 39.923 282.069 40.5438 280.708 40.7364C278.839 41.0008 276.813 40.3406 275.502 38.8648C275.471 38.5414 275.44 38.2185 275.409 37.895C275.344 37.214 275.279 36.5331 275.242 35.85C275.233 35.6946 275.23 35.5265 275.312 35.4026Z"
    fill="#794642" />
  <path
    d="M270.729 28.7371C271.253 35.169 276.187 39.9911 280.206 39.6415C284.224 39.292 288.311 33.6863 287.788 27.2544C287.265 20.8226 282.422 17.1342 278.404 17.4837C274.385 17.8327 270.206 22.3053 270.729 28.7371Z"
    fill="#86514D" />
  <path
    d="M271.392 31.196C270.315 30.9731 269.333 30.1511 269.159 29.0818C268.986 28.0119 269.826 26.8144 270.928 26.7852"
    fill="#86514D" />
  <path
    d="M287.247 29.8167C288.271 29.4107 289.108 28.4313 289.106 27.3466C289.104 26.2618 288.081 25.2266 286.991 25.3878"
    fill="#86514D" />
  <path
    d="M281.333 23.302C281.275 23.3807 281.353 23.5121 281.444 23.526C281.534 23.5398 281.619 23.4818 281.697 23.4291C282.646 22.7881 283.868 22.6865 284.905 23.1621C285.065 23.235 285.227 23.3222 285.397 23.3142C285.568 23.3057 285.746 23.1605 285.737 22.9663C285.734 22.8828 285.697 22.8056 285.655 22.7365C285.476 22.4449 285.192 22.2577 284.902 22.1273C283.966 21.7065 282.864 21.8177 282.022 22.4183C281.707 22.6434 281.416 22.9509 281.305 23.3557"
    fill="#38303B" />
  <path
    d="M276.857 23.695C276.927 23.7625 276.872 23.9057 276.785 23.9349C276.698 23.9642 276.605 23.9216 276.519 23.8828C275.479 23.4152 274.259 23.5253 273.312 24.1732C273.167 24.2727 273.021 24.3866 272.852 24.4079C272.682 24.4291 272.483 24.3164 272.46 24.1238C272.45 24.0413 272.474 23.9583 272.505 23.8833C272.634 23.5652 272.883 23.3311 273.148 23.1529C274.003 22.5762 275.108 22.4959 276.035 22.9427C276.382 23.1103 276.718 23.3635 276.893 23.7434"
    fill="#38303B" />
  <path
    d="M272.562 31.6918C272.645 32.7132 273.554 33.4676 274.591 33.3777C275.629 33.2878 276.403 32.3866 276.32 31.3651C276.237 30.3437 275.328 29.5888 274.29 29.6792C273.253 29.7697 272.479 30.6709 272.562 31.6918Z"
    fill="#794642" />
  <path
    d="M282.79 30.805C282.872 31.8264 283.781 32.5813 284.819 32.4909C285.857 32.4005 286.631 31.4998 286.548 30.4783C286.465 29.4569 285.556 28.7025 284.518 28.7924C283.48 28.8829 282.706 29.7841 282.79 30.805Z"
    fill="#794642" />
  <path
    d="M274.321 26.7229C274.373 27.3602 274.702 27.8523 275.055 27.8214C275.408 27.7906 275.652 27.249 275.6 26.6117C275.548 25.9743 275.22 25.4822 274.867 25.5131C274.514 25.544 274.269 26.0855 274.321 26.7229Z"
    fill="#38303B" />
  <path
    d="M283.273 25.9455C283.325 26.5828 283.653 27.0749 284.006 27.0441C284.359 27.0132 284.604 26.4716 284.552 25.8343C284.5 25.197 284.172 24.7054 283.818 24.7357C283.465 24.7666 283.221 25.3081 283.273 25.9455Z"
    fill="#38303B" />
  <path
    d="M277.173 34.3532C278.742 36.2551 280.217 36.6004 281.999 35.9715C282.653 35.7406 283.605 34.4803 283.803 33.668C281.705 35.1241 279.419 35.4198 277.131 34.226"
    fill="#E66E60" />
  <path
    d="M277.169 34.3474C278.694 35.2582 280.458 35.4305 282.722 34.59C283.235 34.3995 283.736 34.0718 283.96 33.5781C281.82 34.5235 279.19 34.773 276.947 34.1383L277.169 34.3474Z"
    fill="white" />
  <path
    d="M269.448 23.2558C272.016 22.6296 274.297 20.6761 275.547 18.0321C275.518 19.1301 275.301 20.2175 274.914 21.214C279.651 20.2016 284.588 20.3298 289.316 21.5869C289.473 21.6289 289.644 21.6704 289.789 21.5917C290.04 21.455 290.06 21.0581 290.037 20.7368C289.856 18.2193 289.162 15.6173 287.562 13.8607C286.723 12.9403 285.681 12.3008 284.608 11.8077C280.984 10.1415 276.772 10.0968 273.314 12.0481C269.857 13.9995 267.286 18.0252 267.012 22.4727"
    fill="#38303B" />
  <path
    d="M278.972 24.977C279.227 26.223 279.482 27.4689 279.737 28.7148C279.863 29.3277 279.988 29.9406 280.113 30.5529C280.138 30.671 280.218 30.8647 280.201 30.9817C280.3 30.8992 280.283 30.8758 280.152 30.9115C280.076 30.9157 280.002 30.92 279.927 30.9242C279.628 30.9413 279.328 30.9578 279.029 30.9748C278.7 30.9934 278.698 31.5254 279.029 31.5068C279.366 31.4876 279.703 31.469 280.04 31.4499C280.257 31.4376 280.516 31.4562 280.654 31.2472C280.799 31.028 280.67 30.7024 280.623 30.4726C280.544 30.0847 280.464 29.6964 280.385 29.3086C280.079 27.8174 279.774 26.3262 279.469 24.8355C279.4 24.5009 278.903 24.6429 278.972 24.977Z"
    fill="#794642" />
  <path
    d="M308.983 187.189C308.719 188.865 308.456 190.541 308.193 192.218C308.141 192.544 308.09 192.875 308.131 193.203C308.29 194.484 309.715 195.179 310.266 196.342C310.325 196.466 310.374 196.6 310.362 196.737C310.324 197.175 309.765 197.306 309.334 197.323C308.071 197.371 306.808 197.419 305.545 197.466C305.068 197.485 304.504 197.46 304.239 197.057C304.119 196.875 304.089 196.649 304.06 196.432C303.653 193.265 303.245 190.097 302.837 186.93"
    fill="#86514D" />
  <path
    d="M274.626 187.181C274.886 188.857 275.145 190.534 275.404 192.21C275.455 192.536 275.505 192.868 275.465 193.195C275.308 194.476 273.905 195.171 273.363 196.334C273.306 196.458 273.257 196.593 273.269 196.729C273.306 197.167 273.857 197.299 274.282 197.315C275.524 197.363 276.767 197.411 278.009 197.459C278.479 197.477 279.034 197.452 279.294 197.049C279.412 196.867 279.443 196.642 279.47 196.424C279.871 193.257 280.272 190.089 280.674 186.922"
    fill="#86514D" />
  <path
    d="M261.947 202.512C265.039 202.633 267.573 202.729 270.665 202.85C271.611 202.887 272.606 202.913 273.446 202.462C273.909 202.213 274.371 201.812 274.883 201.919C275.279 202.001 275.556 202.368 275.92 202.551C276.238 202.712 276.605 202.722 276.96 202.73C278.041 202.754 279.122 202.778 280.203 202.802C280.56 202.81 280.953 202.804 281.222 202.562C281.539 202.278 281.558 201.784 281.539 201.351C281.463 199.637 281.163 197.935 280.648 196.304C280.531 195.933 280.358 195.519 279.997 195.403C279.666 195.296 279.322 195.49 279.019 195.665C277.794 196.377 276.185 196.879 275.055 196.018C274.761 195.794 274.518 195.488 274.181 195.344C273.807 195.184 273.384 195.251 272.988 195.327C269.563 195.978 266.221 197.1 263.08 198.655C262.367 199.007 261.63 199.413 261.207 200.103C260.784 200.793 260.816 201.848 261.477 202.295"
    fill="#38303B" />
  <path
    d="M268.081 196.643C268.131 196.68 268.184 196.726 268.245 196.785C268.306 196.845 268.363 196.908 268.416 196.974C268.449 197.014 268.445 197.009 268.47 197.045C268.495 197.08 268.519 197.115 268.541 197.152C268.587 197.225 268.629 197.299 268.667 197.376C268.684 197.41 268.701 197.445 268.717 197.48C268.727 197.502 268.736 197.524 268.746 197.546C268.764 197.59 268.735 197.518 268.752 197.563C268.783 197.643 268.811 197.725 268.836 197.809C268.86 197.892 268.881 197.976 268.898 198.06C268.907 198.103 268.915 198.145 268.922 198.188C268.931 198.239 268.934 198.262 268.937 198.287C268.954 198.43 269.043 198.553 269.194 198.553C269.32 198.553 269.468 198.431 269.451 198.287C269.353 197.46 269.004 196.681 268.341 196.183C268.228 196.098 268.054 196.163 267.989 196.278C267.912 196.413 267.968 196.558 268.081 196.643Z"
    fill="#F09532" />
  <path
    d="M270.789 195.674C271.383 196.295 271.816 197.061 272.047 197.901C272.138 198.23 272.634 198.09 272.543 197.759C272.288 196.832 271.808 195.982 271.152 195.298C270.919 195.054 270.555 195.43 270.789 195.674Z"
    fill="#F09532" />
  <path
    d="M321.682 202.628C318.589 202.75 316.056 202.845 312.963 202.967C312.017 203.004 311.023 203.03 310.183 202.578C309.719 202.329 309.258 201.929 308.746 202.036C308.35 202.118 308.073 202.485 307.709 202.668C307.391 202.829 307.024 202.84 306.669 202.848C305.588 202.871 304.507 202.895 303.426 202.919C303.069 202.927 302.676 202.921 302.407 202.679C302.09 202.395 302.07 201.901 302.09 201.468C302.166 199.754 302.466 198.052 302.981 196.422C303.098 196.05 303.271 195.636 303.632 195.52C303.963 195.413 304.308 195.607 304.61 195.783C305.835 196.494 307.444 196.997 308.575 196.135C308.869 195.911 309.111 195.605 309.449 195.461C309.822 195.302 310.245 195.368 310.642 195.444C314.067 196.095 317.408 197.218 320.55 198.772C321.262 199.125 321.999 199.531 322.422 200.22C322.846 200.91 322.814 201.964 322.152 202.412"
    fill="#38303B" />
  <path
    d="M315.32 196.293C314.657 196.79 314.308 197.57 314.21 198.397C314.193 198.54 314.34 198.663 314.467 198.663C314.62 198.663 314.708 198.54 314.725 198.397C314.73 198.354 314.725 198.394 314.728 198.368C314.731 198.35 314.734 198.331 314.737 198.312C314.744 198.269 314.752 198.227 314.76 198.185C314.777 198.1 314.798 198.016 314.822 197.933C314.873 197.756 314.916 197.641 314.994 197.486C315.03 197.413 315.07 197.343 315.113 197.274C315.135 197.238 315.159 197.202 315.183 197.167C315.216 197.119 315.206 197.133 315.236 197.095C315.289 197.029 315.346 196.965 315.407 196.905C315.471 196.842 315.527 196.793 315.581 196.753C315.693 196.669 315.748 196.521 315.673 196.389C315.607 196.273 315.433 196.207 315.32 196.293Z"
    fill="#F09532" />
  <path
    d="M312.49 195.403C311.835 196.088 311.354 196.938 311.099 197.865C311.008 198.195 311.505 198.336 311.596 198.007C311.827 197.167 312.26 196.401 312.854 195.78C313.087 195.536 312.724 195.159 312.49 195.403Z"
    fill="#F09532" />
  <path
    d="M286.394 111.607H287.706L296.747 150.483L301.552 187.613C301.585 187.869 301.792 188.062 302.042 188.069L309.64 188.287C310.013 188.298 310.316 187.978 310.298 187.593L308.508 148.917L301.894 98.1486L299.563 88.8594L270.903 90.1819L269.937 102.057L271.329 150.979L273.674 187.887C273.698 188.273 274.014 188.568 274.388 188.555L280.749 188.33C281.112 188.317 281.404 188.016 281.417 187.64L282.674 150.754L286.394 111.607Z"
    fill="#38303B" />
  <g opacity="0.26">
    <path
      d="M270.651 112.349C271.483 111.229 272.216 110.091 272.831 108.871C273.457 107.657 273.95 106.383 274.433 105.062C274.349 106.475 273.921 107.859 273.286 109.119C272.64 110.371 271.77 111.528 270.651 112.349Z"
      fill="#ADDFDC" />
    <path
      d="M297.971 103.941C298.672 105.295 299.315 106.647 300.117 107.892C300.908 109.144 301.848 110.273 303.003 111.238C302.32 110.934 301.686 110.495 301.136 109.964C300.58 109.439 300.104 108.828 299.688 108.184C298.869 106.883 298.292 105.44 297.971 103.941Z"
      fill="#ADDFDC" />
    <path
      d="M301.634 184.812C302.992 184.653 304.338 184.607 305.69 184.594C307.041 184.597 308.396 184.631 309.749 184.85C308.395 185.053 307.046 185.115 305.692 185.128C304.34 185.123 302.98 185.073 301.634 184.812Z"
      fill="#ADDFDC" />
    <path
      d="M274.061 185.581C275.249 185.317 276.436 185.216 277.625 185.153C278.814 185.107 280.005 185.101 281.206 185.259C280.026 185.524 278.834 185.625 277.642 185.687C276.45 185.731 275.255 185.737 274.061 185.581Z"
      fill="#ADDFDC" />
  </g>
  <path
    d="M265.965 51.1094C256.749 54.1168 251.295 56.1958 242.704 59.3618C239.516 60.5364 230.454 63.7566 227.315 65.0036C223.727 66.4289 223.641 70.7125 229.213 69.4607C233.722 68.4478 237.386 68.1222 241.418 67.3136C252.428 65.1042 261.62 64.3264 272.95 59.8102"
    fill="#86514D" />
  <path
    d="M298.23 45.4413C305.191 39.0493 309.505 35.4158 316.229 29.6367C318.724 27.4922 325.739 21.338 328.254 19.2712C331.129 16.9086 333.951 18.9631 330.109 23.1096C327 26.4649 324.796 29.4388 322.079 32.4866C314.659 40.8108 309.156 48.2891 300.067 55.7419"
    fill="#86514D" />
  <path
    d="M327.7 19.7714C329.314 17.9536 329.558 16.4007 330.178 14.7153C330.618 13.5204 331.259 12.4367 331.897 11.3637C332.924 9.63258 333.951 7.90145 334.978 6.16979C335.085 5.98891 335.236 5.78408 335.411 5.8176C335.654 5.86388 335.643 6.27938 335.575 6.57198L334.823 9.79803C334.81 9.85601 334.862 9.89645 334.902 9.85814C336.687 8.13712 338.865 6.31608 339.969 5.78089C340.372 5.63406 340.462 6.03838 340.248 6.40865L336.008 11.3765C335.961 11.4318 336.016 11.5159 336.071 11.4712L339.837 8.4111C340.321 8.01795 340.822 7.61576 341.371 7.42903C341.551 7.36732 341.724 7.55245 341.667 7.76791C341.529 8.30098 341.172 8.69306 340.803 9.091C338.638 11.4233 337.165 13.0645 337.21 13.1885C337.299 13.2784 339.426 11.3802 340.833 10.18C341.146 9.91347 341.552 9.64375 341.879 9.65545C342.203 9.66716 342.295 9.98582 342.088 10.3034C340.977 12.0042 339.785 13.2943 338.316 14.5594C338.261 14.6062 338.305 14.7009 338.364 14.6626C338.364 14.6626 341.511 11.8276 341.819 12.408C342.063 12.8677 341.399 13.6002 340.985 14.0471C338.719 16.4932 335.237 19.6507 332.424 21.1546C330.673 22.091 330.139 22.824 329.81 23.2395"
    fill="#86514D" />
  <path
    d="M331.653 19.6024C332.987 17.6053 333.265 15.1124 333.516 12.762C333.542 12.521 333.177 12.5231 333.151 12.762C332.907 15.048 332.634 17.4707 331.338 19.412C331.204 19.6125 331.52 19.8009 331.653 19.6024Z"
    fill="#794642" />
  <path
    d="M257.228 53.2314C257.492 52.9058 257.823 52.6383 258.192 52.4499C263.956 49.5005 267.852 47.6614 274.455 46.9746C274.952 46.923 275.504 46.8464 276.1 46.7511C277.646 46.5048 279.782 47.4353 281.686 47.0624C283.346 46.7368 284.758 45.1083 286.371 44.8567C287.025 44.7545 287.662 44.6657 288.273 44.5939C288.774 44.5354 299.422 41.3455 299.873 41.5961C300.23 41.7945 300.823 41.0162 302.603 43.624C303.943 45.5882 305.371 47.4965 305.979 49.8697C306.588 52.2424 307.214 53.2367 305.588 54.9099C303.918 56.6282 300.181 58.7887 299.179 61.0646C298.64 62.2903 298.81 63.7384 298.993 65.0887C300.577 76.799 302.161 88.5094 303.746 100.22C303.854 101.018 303.939 101.922 303.485 102.551C303.018 103.198 302.178 103.284 301.434 103.318C291.284 103.783 281.135 104.248 270.986 104.714C270.332 104.743 269.611 104.75 269.107 104.284C268.533 103.753 268.455 102.818 268.423 101.987C267.995 90.8912 266.447 79.3287 266.352 68.2237C264.929 66.6022 263.128 68.0849 261.235 67.2539C260.348 66.8645 259.692 65.252 259.358 64.2561C258.198 60.7965 257.666 59.1483 256.691 56.2239C256.349 55.1977 256.553 54.0619 257.228 53.2314Z"
    fill="#EA9D81" />
  <path
    d="M275.593 47.6295C279.381 49.0622 283.873 48.4047 287.114 45.917C287.671 45.4893 287.954 44.7658 287.576 44.0976C287.255 43.5299 286.377 43.1895 285.815 43.6204C283.04 45.7516 279.495 46.2814 276.277 45.0648C275.624 44.8179 274.868 45.3414 274.694 45.9936C274.497 46.7347 274.938 47.3816 275.593 47.6295Z"
    fill="#38303B" />
  <path
    d="M221.411 58.0671C220.025 58.3118 218.61 57.8442 218.027 59.0412C216.083 63.0328 216.274 68.2969 215.966 72.671C215.329 81.7156 214.946 89.6328 214.751 98.6954C214.731 99.6232 214.177 101.055 214.981 101.602C215.597 102.02 216.433 101.966 217.191 101.894C225.357 101.121 233.648 100.476 241.735 101.789C242.405 101.898 242.89 101.893 243.48 101.577C244.377 101.097 244.041 99.7434 244 98.78C243.912 96.6695 243.568 94.4479 243.48 92.3375C243.186 85.3454 242.791 78.6012 242.498 71.6091C242.388 68.989 243.285 66.5152 242.548 63.9851C241.81 61.4543 240.094 59.3471 237.816 57.808C234.733 55.7247 228.215 57.285 225.064 59.279"
    fill="#FFEDD7" />
  <path
    d="M246.002 62.9648C250.642 71.2039 252.159 77.1958 254.211 85.3413C254.311 85.7355 254.479 87.4012 253.765 88.1503C253.512 88.4157 252.376 88.695 251.98 88.7121C250.727 88.7653 250.778 88.7136 249.535 88.5626C249.072 88.5067 248.592 88.429 248.218 88.1838C247.788 87.9018 247.567 87.4438 247.366 87.0081C244.119 79.9447 241.268 72.7425 238.824 65.4355"
    fill="#EA9D81" />
  <path
    d="M211.877 62.2547C208.256 70.3528 206.098 75.5616 204.333 84.3125C204.181 85.0669 204.333 87.4023 205.493 87.9636C206.076 88.2456 206.098 88.0977 206.715 87.9147C208.131 87.4949 209.548 87.0752 210.963 86.6554C211.35 86.5405 211.747 86.4213 212.072 86.174C212.696 85.6994 212.939 84.8599 213.148 84.0821C215.348 75.9016 218.067 67.8742 221.279 60.0703"
    fill="#F7B094" />
  <path
    d="M215.509 75.524C212.918 73.713 210.835 72.3889 208.392 70.3843C208.068 70.1194 207.734 69.8358 207.583 69.4469C207.409 69.0022 207.505 68.4978 207.657 68.0435C208.223 66.3443 209.564 64.0929 210.795 62.7873C212.329 61.1616 214.302 59.3708 216.341 58.4734C220.367 56.7007 222.167 56.9588 225.587 56.7773"
    fill="#FFEDD7" />
  <path
    d="M241.333 76.7343C243.812 74.8079 247.019 72.216 249.35 70.088C249.658 69.8066 249.565 69.723 249.704 69.3134C249.863 68.8452 249.571 68.2627 249.414 67.7876C248.826 66.0129 247.565 64.5972 246.339 63.2427C244.812 61.5547 243.668 60.7195 241.812 59.4751C239.956 58.2302 237.661 57.1838 235.325 56.7773"
    fill="#FFEDD7" />
  <path
    d="M242.568 75.8404C243.02 75.4861 243.472 75.1307 243.919 74.7689C242.821 72.7771 241.722 70.7848 240.624 68.793C241.209 71.1572 241.862 73.5054 242.568 75.8404Z"
    fill="#F4DABE" />
  <path
    d="M217.874 68.3711C216.544 70.5268 213.804 74.2257 214.009 74.5072C214.57 74.9291 215.249 75.3323 215.752 75.6882C216.496 73.258 217.206 70.8199 217.874 68.3711Z"
    fill="#F4DABE" />
  <path
    d="M237.564 57.3091C234.778 55.9073 231.796 55.5769 228.484 55.6934C225.734 55.7897 223.709 55.9988 220.8 57.0011C221.892 60.9267 225.285 64.5129 229.414 64.3682C233.293 64.232 236.499 60.9459 237.564 57.3091Z"
    fill="#F7B094" />
  <path
    d="M206.078 73.0302C206.74 73.6298 207.035 73.8245 207.799 74.2469C208.223 74.4804 208.825 74.6852 209.085 74.2634C209.369 73.8016 208.873 73.3664 208.467 73.0094C207.83 72.4498 206.481 71.1959 205.844 70.6367"
    fill="#86514D" />
  <path
    d="M206.204 71.019C206.924 71.6845 207.724 72.2686 208.584 72.7554C209.058 73.0236 209.934 73.5204 210.368 72.9741C210.803 72.4272 210.01 71.7021 209.568 71.3073C208.823 70.6407 208.078 69.9747 207.332 69.3086"
    fill="#86514D" />
  <path
    d="M206.859 69.1233C207.715 69.8771 208.659 70.5262 209.666 71.0491C210.197 71.3247 211.186 71.8349 211.533 71.139C211.842 70.5171 211.006 69.9415 210.5 69.5196C209.608 68.7754 208.824 68.2769 207.935 67.3438"
    fill="#86514D" />
  <path
    d="M207.921 67.514C208.635 68.1524 209.411 68.702 210.229 69.1472C210.681 69.3936 211.319 69.5585 211.581 69.0978C211.869 68.5929 211.379 67.9593 210.941 67.5794C210.424 67.1315 209.786 66.7777 209.298 66.2947C208.746 65.7483 209.355 65.245 209.185 65.0977"
    fill="#86514D" />
  <path
    d="M206.172 73.1572C205.49 72.4358 205.224 71.5691 205.313 70.5791C205.403 69.589 205.8 68.6389 206.279 67.7483C206.877 66.637 207.384 65.8996 208.471 65.2133C208.728 65.0511 209.017 64.9085 209.318 64.9229"
    fill="#86514D" />
  <path
    d="M229.839 73.1482C229.709 71.025 229.578 68.9018 229.448 66.7786C229.386 65.7625 229.316 64.7187 228.888 63.7957C228.46 62.8727 227.584 62.0848 226.569 62.0709C226.084 62.064 225.598 62.2316 225.119 62.1481C223.915 61.9379 224.017 59.9216 223.705 58.7353C222.847 55.4704 220.004 53.1504 216.949 51.7331C215.9 51.2469 214.706 50.9191 213.595 51.2325C212.483 51.5458 211.548 52.687 211.802 53.8175C211.986 54.6357 212.698 55.2193 213.073 55.9694C213.924 57.6718 212.963 60.0217 214.193 61.473C215.458 62.9658 218.349 62.5662 219.107 64.3718C219.358 64.9709 219.276 65.6555 219.422 66.2881C219.696 67.4739 220.742 68.3352 221.849 68.8342C222.956 69.3327 224.167 69.5588 225.292 70.0148C227.069 70.7345 228.605 72.0374 229.608 73.6754"
    fill="#6EA652" />
  <path
    d="M227.044 74.7243C227.118 72.5102 226.7 70.2853 225.71 68.3579C225.219 67.3939 224.591 66.5166 223.904 65.6756C223.222 64.8355 222.464 64.0503 221.766 63.1885C221.082 62.325 220.444 61.393 219.95 60.3885C219.451 59.3916 219.021 58.3765 218.557 57.3875C218.092 56.4007 217.533 55.4654 216.805 54.6706C216.094 53.8673 215.184 53.2347 214.139 52.957C215.21 53.115 216.192 53.7199 216.984 54.4865C217.771 55.268 218.392 56.2166 218.907 57.1981C219.436 58.176 219.855 59.2 220.363 60.1614C220.855 61.1301 221.478 62.0069 222.162 62.8501C223.504 64.5296 225.122 66.1102 226.062 68.176C226.532 69.1947 226.854 70.2816 227.02 71.3892C227.175 72.4979 227.188 73.6242 227.044 74.7243Z"
    fill="#83BA63" />
  <path
    d="M230.437 74.1134C230.727 71.7832 231.017 69.4531 231.308 67.1229C231.447 66.0078 231.595 64.863 232.12 63.8724C232.645 62.8818 233.641 62.0668 234.733 62.1131C235.255 62.1349 235.765 62.3487 236.285 62.2854C237.594 62.1269 238.102 60.4942 238.521 59.2067C239.673 55.6636 242.416 52.6876 245.799 51.3119C246.959 50.84 248.265 50.5511 249.437 50.9634C250.609 51.3757 251.532 52.6892 251.18 53.9181C250.925 54.8082 250.119 55.4077 249.663 56.2105C248.629 58.0337 249.496 60.6793 248.072 62.2024C246.608 63.7697 243.53 63.1547 242.589 65.097C242.276 65.7413 242.316 66.4999 242.114 67.1883C241.735 68.4774 240.552 69.3626 239.327 69.8446C238.102 70.3266 236.786 70.5022 235.545 70.9363C233.585 71.6215 231.843 72.9632 230.65 74.706"
    fill="#6EA652" />
  <path
    d="M231.044 74.4137C230.967 73.1906 231.308 71.9617 231.851 70.8674C232.407 69.7714 233.174 68.8074 234.012 67.9328C235.71 66.1943 237.737 64.8972 239.38 63.198C240.221 62.3708 240.93 61.4307 241.53 60.396C242.142 59.3708 242.663 58.2749 243.293 57.2343C243.91 56.1884 244.636 55.1835 245.533 54.3652C246.432 53.5609 247.533 52.9405 248.716 52.8203C247.555 53.0613 246.524 53.7114 245.704 54.5573C244.866 55.392 244.201 56.3874 243.634 57.4423C243.067 58.4984 242.536 59.5852 241.931 60.6455C241.333 61.7074 240.597 62.7155 239.739 63.5774C238.012 65.2952 235.994 66.5927 234.284 68.226C233.435 69.0442 232.654 69.9539 232.07 70.9929C231.469 72.0191 231.084 73.1922 231.044 74.4137Z"
    fill="#83BA63" />
  <path
    d="M228.674 73.5802C228.32 71.2059 227.966 68.8316 227.611 66.4578C227.442 65.3214 227.273 64.1532 227.516 63.0317C227.76 61.9097 228.515 60.8297 229.598 60.5701C230.116 60.4456 230.676 60.5132 231.169 60.3057C232.41 59.7838 232.461 58.0352 232.518 56.6509C232.677 52.8418 234.554 49.1465 237.496 46.8467C238.505 46.0577 239.708 45.4087 240.971 45.4869C242.234 45.5651 243.501 46.5993 243.492 47.9075C243.486 48.8544 242.859 49.67 242.632 50.5877C242.116 52.671 243.693 55.032 242.714 56.9297C241.706 58.8816 238.517 59.1364 238.126 61.3117C237.996 62.0331 238.243 62.7684 238.234 63.502C238.216 64.8761 237.218 66.2498 236.148 67.0664C235.079 67.883 233.879 67.8181 232.779 68.5922C231.044 69.8142 230.238 71.8427 229.546 73.8914"
    fill="#83BA63" />
  <path
    d="M228.923 73.8597C228.839 71.338 229.455 68.778 230.671 66.5538C231.879 64.3077 233.772 62.5893 234.732 60.3246C235.761 58.0864 236.072 55.5531 236.849 53.1399C237.247 51.936 237.764 50.7619 238.486 49.7223C239.213 48.6982 240.169 47.8055 241.317 47.3555C240.219 47.9162 239.336 48.8233 238.693 49.8702C238.033 50.9098 237.57 52.0722 237.226 53.2633C236.539 55.6483 236.231 58.1912 235.198 60.548C234.132 62.9175 232.238 64.6332 231.011 66.7586C230.383 67.8173 229.892 68.9658 229.548 70.1623C229.189 71.3561 228.992 72.6015 228.923 73.8597Z"
    fill="#6EA652" />
  <path d="M237.267 95.8356H222.986L218.46 68.668H241.34L237.267 95.8356Z" fill="#DDCDB6" />
  <path d="M242.928 67.2422H216.928V71.661H242.928V67.2422Z" fill="#CEBBA1" />
  <g opacity="0.09">
    <path
      d="M243.205 86.6512C238.311 85.1286 234.143 84.0923 229.047 83.8715C223.895 83.6486 219.081 84.3344 214.507 86.8162C214.46 87.9115 214.416 89.0075 214.375 90.1034C216.477 89.1921 218.115 88.4584 220.218 87.5471C221.58 86.9566 222.962 86.3602 224.426 86.1804C226.6 85.9134 228.766 86.5815 230.872 87.2061C235.338 88.5303 239.01 89.4895 243.554 90.4779C243.451 89.2048 243.332 87.9286 243.205 86.6512Z"
      fill="#38303B" />
  </g>
  <path
    d="M252.425 88.6257C242.464 89.8036 230.563 86.8206 220.966 81.988C223.268 81.789 225.57 81.5895 227.872 81.3905C229.412 81.2575 230.952 81.124 232.495 81.0554C237.838 80.8165 243.213 81.3517 248.418 82.6418"
    fill="#EA9D81" />
  <path
    d="M204.603 86.7713C204.605 87.2139 205.471 87.6071 205.473 88.0497C206.521 88.5025 207.379 88.6871 208.501 88.5264C217.485 87.2427 225.821 84.8545 234.453 81.9429C235.055 81.7397 235.699 81.1103 235.932 80.6219C236.675 79.0616 236.973 78.4998 236.854 76.6899C236.82 76.1755 236.329 75.4466 235.873 75.2546C235.22 74.9795 234.845 75.1519 234.504 75.5669L232.005 79.3116C231.47 79.9984 231.182 79.5021 231.106 79.368C230.982 79.1488 231.276 78.6594 231.232 78.4067C231.172 78.0635 230.896 77.9944 230.697 78.0322C230.177 78.1306 229.751 78.8286 229.296 79.1893C227.91 80.2894 226.061 80.4347 224.325 80.5379C218.968 80.8565 213.611 81.1747 208.255 81.4933"
    fill="#F7B094" />
  <path d="M82.7226 142.807L79.1889 144.318L58.7124 93.1523L64.909 98.2952L82.7226 142.807Z" fill="#DD8C73" />
  <path d="M80.2078 76.4024L34.4253 95.9805L42.6655 116.57L88.448 96.9915L80.2078 76.4024Z" fill="#EA9D81" />
  <path
    d="M48.5634 104.185L45.9245 105.314L45.9133 106.759L44.5654 107.336L44.8016 100.513L46.1008 99.9574L50.9395 104.61L49.5591 105.2L48.5634 104.185ZM47.7457 103.354L45.9649 101.542L45.9431 104.125L47.7457 103.354ZM49.0048 98.3121L50.2715 97.7703L52.7066 103.854L51.4399 104.396L49.0048 98.3121ZM51.4471 97.2676L52.7138 96.7258L55.1489 102.809L53.8822 103.351L51.4471 97.2676ZM60.6203 100.585C60.171 100.777 59.7111 100.903 59.2408 100.963C58.7736 101.016 58.3735 100.998 58.0403 100.91L58.0865 99.719C58.4023 99.7951 58.7499 99.8161 59.1293 99.7819C59.5087 99.7477 59.8662 99.6588 60.2018 99.5153C60.5753 99.3555 60.8295 99.1828 60.9644 98.9971C61.0971 98.8059 61.1262 98.6174 61.0518 98.4316C60.9971 98.2949 60.8981 98.206 60.7549 98.1649C60.6148 98.1159 60.45 98.1 60.2603 98.1171C60.076 98.1319 59.83 98.1667 59.5223 98.2215C59.0476 98.3029 58.6515 98.3506 58.3338 98.3649C58.0162 98.3791 57.7113 98.3142 57.4191 98.1703C57.1324 98.0241 56.9124 97.7597 56.7593 97.3771C56.6258 97.0437 56.5948 96.7048 56.6662 96.3606C56.7355 96.0109 56.917 95.6804 57.2108 95.3691C57.5101 95.0555 57.9195 94.7875 58.4392 94.5653C58.8019 94.4102 59.1739 94.3023 59.5554 94.2415C59.9368 94.1808 60.2903 94.1769 60.6158 94.2297L60.6134 95.4118C59.968 95.3358 59.3828 95.41 58.8577 95.6346C58.4896 95.792 58.2403 95.9691 58.1098 96.1657C57.9847 96.3601 57.9615 96.5556 58.0403 96.7524C58.1191 96.9492 58.2783 97.0539 58.5179 97.0666C58.7608 97.0716 59.1093 97.0314 59.5633 96.946C60.0379 96.8647 60.4341 96.8169 60.7517 96.8027C61.0693 96.7885 61.3705 96.8517 61.655 96.9925C61.945 97.1309 62.1666 97.3915 62.3197 97.7741C62.451 98.102 62.4793 98.442 62.4046 98.794C62.3332 99.1382 62.1479 99.4672 61.8486 99.7808C61.5494 100.094 61.1399 100.362 60.6203 100.585ZM66.6833 97.9916C66.0933 98.2439 65.5087 98.3435 64.9295 98.2903C64.3557 98.2349 63.8438 98.0409 63.3937 97.7084C62.9469 97.3682 62.6108 96.9166 62.3854 96.3536C62.1601 95.7906 62.0903 95.2283 62.1762 94.6667C62.2653 94.0972 62.4939 93.5834 62.862 93.1251C63.2355 92.6644 63.7173 92.3079 64.3074 92.0556C64.8974 91.8032 65.4793 91.7048 66.0531 91.7603C66.6269 91.8158 67.1399 92.0125 67.5921 92.3504C68.0422 92.6828 68.3799 93.1306 68.6052 93.6935C68.8306 94.2565 68.8987 94.8227 68.8096 95.3922C68.7184 95.9561 68.4887 96.4673 68.1206 96.9256C67.7524 97.3839 67.2734 97.7392 66.6833 97.9916ZM66.2304 96.8601C66.5661 96.7166 66.8386 96.5104 67.048 96.2416C67.2552 95.9674 67.3788 95.6584 67.4188 95.3148C67.4642 94.9689 67.4158 94.6183 67.2736 94.2631C67.1314 93.9078 66.926 93.6243 66.6574 93.4127C66.3943 93.1988 66.0967 93.0732 65.7648 93.0359C65.4307 92.9931 65.0958 93.0435 64.7602 93.187C64.4246 93.3306 64.1532 93.5395 63.946 93.8137C63.7366 94.0825 63.6092 94.3899 63.5638 94.7358C63.5238 95.0794 63.5749 95.4288 63.7171 95.7841C63.8593 96.1394 64.062 96.424 64.3251 96.6379C64.5937 96.8496 64.895 96.9767 65.2291 97.0195C65.561 97.0568 65.8948 97.0037 66.2304 96.8601ZM68.4452 90.4011L69.7606 89.8386L71.6246 94.4955L74.4747 93.2766L74.9079 94.3589L70.7424 96.1404L68.4452 90.4011ZM73.3457 88.3053L75.9278 87.201C76.5449 86.9371 77.137 86.8247 77.7043 86.8638C78.2747 86.8951 78.7762 87.071 79.2089 87.3917C79.647 87.7101 79.9809 88.1562 80.2106 88.7302C80.4403 89.3041 80.509 89.8637 80.4166 90.4089C80.3296 90.9518 80.096 91.4454 79.7159 91.8897C79.3391 92.3261 78.8421 92.6763 78.225 92.9402L75.6429 94.0445L73.3457 88.3053ZM77.7235 91.8776C78.2919 91.6345 78.6805 91.2826 78.8892 90.8221C79.1012 90.3537 79.0978 89.8463 78.879 89.2997C78.6602 88.7531 78.3168 88.3942 77.8489 88.223C77.3842 88.0441 76.8677 88.0762 76.2993 88.3192L75.0975 88.8332L76.5218 92.3915L77.7235 91.8776Z"
    fill="#38303B" />
  <path
    d="M24.3604 154.823C25.3959 150.766 30.0716 148.157 33.9213 149.488C35.139 147.936 36.3907 146.354 38.0428 145.317C39.6954 144.281 41.8554 143.88 43.5646 144.814C44.1611 145.14 44.6851 145.615 45.3248 145.837C45.8981 146.036 46.5178 146.015 47.1143 146.119C50.6372 146.726 52.0793 151.055 52.8317 154.664"
    fill="#DEEEED" />
  <path
    d="M121.674 154.467C122.208 152.021 121.413 149.312 119.654 147.584C117.896 145.858 115.237 145.174 112.901 145.851C112.428 145.987 111.947 146.178 111.461 146.107C110.566 145.977 110.024 145.055 109.548 144.26C107.561 140.945 104.357 138.214 100.615 137.717C96.8726 137.221 92.7229 139.445 91.6658 143.189C88.2376 140.859 82.9097 142.659 81.4754 146.633C76.6241 145.609 71.3287 149.417 70.5696 154.474"
    fill="#DEEEED" />
  <path
    d="M79.4086 154.423C77.984 149.934 72.3015 147.534 68.2434 149.708C67.1708 147.576 65.5929 145.584 63.4251 144.716C61.2573 143.847 58.4467 144.421 57.2264 146.467C57.0195 146.813 56.8523 147.203 56.5404 147.451C56.019 147.866 55.2877 147.756 54.6294 147.76C51.1143 147.786 48.7833 151.412 47.1091 154.608"
    fill="#DEEEED" />
  <path
    d="M176.746 179.514C177.787 180.731 179.332 181.31 180.852 181.055C182.371 180.799 183.839 179.714 184.751 178.17C185.832 176.34 186.095 174 185.751 171.926C185.408 169.854 184.512 168.017 183.459 166.381C181.154 162.801 178.024 160.016 174.454 158.371"
    fill="#794642" />
  <path
    d="M143.262 170.525C141.742 171.117 140.02 170.918 138.684 169.997C137.348 169.076 136.423 167.448 136.226 165.672C135.993 163.568 136.76 161.389 137.988 159.723C139.216 158.057 140.867 156.853 142.581 155.897C146.332 153.806 150.521 152.793 154.634 152.984"
    fill="#794642" />
  <path
    d="M153.451 151.516C148.152 155.2 143.615 160.29 140.78 165.54C137.944 170.789 137.294 177.143 140.256 182.778C143.289 188.546 150.152 193.12 157.598 194.22C165.045 195.32 172.756 192.848 176.711 187.994C178.315 186.024 179.507 183.79 180.019 181.395C182.15 171.435 179.49 163.112 175.213 154.981"
    fill="#86514D" />
  <path
    d="M179.137 149.689C181.158 141.827 177.012 133.865 169.877 131.907C162.743 129.948 155.321 134.734 153.301 142.596C151.281 150.458 155.427 158.42 162.561 160.379C169.696 162.337 177.117 157.551 179.137 149.689Z"
    fill="#86514D" />
  <path
    d="M153.86 132.034C153.225 134.503 154.698 137.05 157.149 137.723C159.599 138.396 162.1 136.939 162.734 134.47C163.368 132.001 161.896 129.454 159.446 128.781C156.995 128.109 154.494 129.565 153.86 132.034Z"
    fill="#86514D" />
  <path
    d="M155.562 132.497C155.166 134.036 156.084 135.623 157.611 136.043C159.139 136.462 160.698 135.554 161.093 134.015C161.488 132.476 160.571 130.889 159.043 130.469C157.516 130.05 155.957 130.958 155.562 132.497Z"
    fill="#86514D" />
  <path
    d="M183.934 140.283C183.3 142.752 180.85 144.221 178.461 143.566C176.072 142.91 174.65 140.377 175.284 137.908C175.919 135.439 178.369 133.969 180.758 134.625C183.147 135.281 184.569 137.814 183.934 140.283Z"
    fill="#86514D" />
  <path
    d="M182.357 139.847C181.962 141.386 180.434 142.302 178.946 141.893C177.457 141.485 176.57 139.906 176.966 138.367C177.361 136.827 178.888 135.911 180.377 136.32C181.866 136.728 182.753 138.307 182.357 139.847Z"
    fill="#86514D" />
  <path
    d="M162.458 196.769C161.879 195.546 161.668 194.141 161.861 192.794C162.109 191.067 163.002 189.488 164.163 188.218C166.483 185.681 170.083 184.304 173.361 185.146C176.638 185.988 179.305 189.266 179.12 192.752C179.045 194.154 178.628 195.557 177.862 196.716C176.837 198.268 175.564 199.25 174.045 199.942C171.398 201.148 168.997 200.998 167.029 200.513C165.535 200.145 163.528 198.746 162.73 197.39"
    fill="#794642" />
  <path
    d="M171.816 195.204C171.316 197.15 169.384 198.309 167.501 197.792C165.619 197.275 164.498 195.278 164.998 193.332C165.498 191.386 167.429 190.227 169.312 190.744C171.195 191.261 172.316 193.258 171.816 195.204Z"
    fill="#F7E4C6" />
  <path
    d="M175.684 192.215C175.478 193.016 174.682 193.494 173.907 193.281C173.132 193.068 172.67 192.246 172.876 191.444C173.082 190.643 173.877 190.166 174.653 190.379C175.428 190.592 175.89 191.414 175.684 192.215Z"
    fill="#F7E4C6" />
  <path
    d="M172.682 188.891C172.477 189.692 171.681 190.169 170.906 189.957C170.131 189.744 169.669 188.922 169.875 188.12C170.081 187.319 170.876 186.842 171.652 187.055C172.427 187.267 172.888 188.089 172.682 188.891Z"
    fill="#F7E4C6" />
  <path
    d="M175.684 196.825C175.478 197.626 174.682 198.103 173.907 197.89C173.131 197.677 172.67 196.855 172.876 196.054C173.082 195.253 173.877 194.775 174.653 194.988C175.428 195.201 175.89 196.023 175.684 196.825Z"
    fill="#F7E4C6" />
  <path
    d="M147.679 192.693C148.797 191.936 149.672 190.829 150.156 189.562C150.776 187.937 150.743 186.103 150.319 184.398C149.47 180.991 146.902 177.92 143.54 176.94C140.179 175.96 136.178 177.407 134.643 180.523C134.026 181.776 133.716 183.208 133.84 184.612C134.005 186.491 134.67 188.005 135.7 189.397C137.494 191.822 139.729 192.944 141.737 193.551C143.261 194.012 145.75 193.847 147.131 193.09"
    fill="#794642" />
  <path
    d="M140.081 186.492C139.581 188.438 140.754 190.45 142.701 190.984C144.648 191.519 146.631 190.374 147.131 188.428C147.631 186.482 146.458 184.471 144.511 183.936C142.564 183.402 140.58 184.546 140.081 186.492Z"
    fill="#F7E4C6" />
  <path
    d="M138.018 181.884C137.812 182.685 138.295 183.513 139.096 183.734C139.898 183.954 140.715 183.482 140.921 182.681C141.127 181.88 140.644 181.052 139.842 180.832C139.04 180.611 138.224 181.083 138.018 181.884Z"
    fill="#F7E4C6" />
  <path
    d="M142.368 180.583C142.162 181.384 142.645 182.213 143.446 182.433C144.248 182.653 145.065 182.182 145.271 181.381C145.477 180.58 144.994 179.751 144.192 179.531C143.391 179.31 142.574 179.782 142.368 180.583Z"
    fill="#F7E4C6" />
  <path
    d="M135.777 185.872C135.571 186.674 136.054 187.502 136.856 187.722C137.658 187.942 138.474 187.471 138.68 186.669C138.886 185.868 138.403 185.04 137.601 184.82C136.8 184.6 135.983 185.071 135.777 185.872Z"
    fill="#F7E4C6" />
  <path
    d="M160.994 154.569L158.569 150.115C157.413 147.994 158.115 145.262 160.136 144.013L164.38 141.391C166.401 140.141 168.977 140.848 170.132 142.97L172.558 147.422C173.713 149.544 173.011 152.276 170.99 153.525L166.747 156.147C164.725 157.397 162.15 156.69 160.994 154.569Z"
    fill="#F2E2C8" />
  <path
    d="M163.289 146.054L164.472 148.983C164.753 149.681 165.607 149.9 166.171 149.419L168.528 147.415C169.157 146.879 168.93 145.831 168.139 145.625L164.449 144.662C163.656 144.454 162.973 145.272 163.289 146.054Z"
    fill="#2E0C2B" />
  <path
    d="M173.783 144.411C173.615 145.066 172.964 145.456 172.33 145.282C171.696 145.108 171.319 144.436 171.487 143.78C171.655 143.125 172.306 142.734 172.94 142.909C173.574 143.083 173.951 143.755 173.783 144.411Z"
    fill="#2E0C2B" />
  <path
    d="M162.694 141.301C162.526 141.956 161.875 142.346 161.241 142.172C160.607 141.999 160.23 141.326 160.398 140.671C160.566 140.015 161.217 139.625 161.851 139.799C162.485 139.973 162.863 140.646 162.694 141.301Z"
    fill="#2E0C2B" />
  <path
    d="M161.015 149.972C161.071 151.124 162.404 151.977 163.445 151.765C164.005 151.65 164.533 151.249 164.882 150.791C165.226 150.338 165.353 149.773 165.474 149.222C165.494 149.128 165.361 149.089 165.333 149.182C164.962 150.393 165.046 151.817 166.228 152.506C167.182 153.062 168.344 152.796 168.963 151.864C169.016 151.783 168.89 151.708 168.837 151.788C168.244 152.679 167.119 152.896 166.232 152.333C165.163 151.656 165.131 150.337 165.474 149.222C165.427 149.209 165.38 149.196 165.334 149.182C165.234 149.636 165.137 150.11 164.896 150.509C164.628 150.954 164.18 151.335 163.709 151.526C162.708 151.932 161.218 151.159 161.162 149.972C161.157 149.875 161.011 149.874 161.015 149.972Z"
    fill="#3A3A38" />
  <path opacity="0.09"
    d="M162.266 158.438C156.505 163.696 153.534 171.328 151.768 178.199C151.671 178.575 157.728 179.318 157.728 179.318L157.693 175.844L165.407 158.726C165.407 158.726 162.675 158.065 162.266 158.438Z"
    fill="black" />
  <path opacity="0.09"
    d="M168.418 158.699C168.211 158.909 162.608 180.954 162.608 180.954L173.004 183.406L172.775 179.648L171.124 159.614L168.418 158.699Z"
    fill="black" />
  <path
    d="M165.697 158.746L157.365 179.687L151.861 178.923C151.861 178.923 155.772 167.615 159.734 162.119C160.881 160.528 162.033 158.117 163.959 158.07C164.295 158.062 165.697 158.746 165.697 158.746Z"
    fill="#D85A50" />
  <path
    d="M169.124 158.837L163.477 181.522L172.966 183.73C172.966 183.73 174.715 173.64 174.836 171.432C174.957 169.224 175.343 164.236 174.499 162.362C173.655 160.487 172.007 157.891 172.007 157.891L169.124 158.837Z"
    fill="#D85A50" />
  <path
    d="M169.134 158.837L163.487 181.522L172.976 183.73C172.976 183.73 174.725 173.64 174.846 171.432C174.967 169.224 175.353 164.236 174.509 162.362C173.665 160.487 172.017 157.891 172.017 157.891L169.134 158.837Z"
    fill="#D85A50" />
  <mask id="mask12_5077_108182" style="mask-type:luminance" maskUnits="userSpaceOnUse" x="163" y="157" width="13"
    height="27">
    <path
      d="M169.1 158.845L163.453 181.529L172.942 183.738C172.942 183.738 174.692 173.648 174.813 171.44C174.934 169.232 175.32 164.244 174.476 162.369C173.631 160.495 171.983 157.898 171.983 157.898L169.1 158.845Z"
      fill="white" />
  </mask>
  <g mask="url(#mask12_5077_108182)">
    <path
      d="M160.259 160.194C161.413 161.701 162.568 163.207 163.723 164.714C163.819 164.841 164.041 164.746 163.945 164.62C162.79 163.113 161.636 161.606 160.481 160.099C160.384 159.972 160.162 160.067 160.259 160.194Z"
      fill="#D85A50" />
    <path
      d="M162.304 158.064C162.839 158.752 163.375 159.439 163.911 160.127C164.009 160.253 164.231 160.158 164.133 160.033C163.598 159.345 163.062 158.657 162.525 157.97C162.428 157.843 162.206 157.939 162.304 158.064Z"
      fill="#D85A50" />
    <path
      d="M163.049 178.813C164.532 180.66 166.177 182.433 167.967 184.115C168.088 184.229 168.262 184.086 168.143 183.974C166.369 182.307 164.74 180.549 163.271 178.719C163.171 178.594 162.949 178.689 163.049 178.813Z"
      fill="#D85A50" />
    <path
      d="M164.544 174.917C166.702 177.121 168.86 179.324 171.018 181.528C171.623 182.147 172.23 182.765 172.835 183.385C172.949 183.5 173.172 183.406 173.057 183.29C170.899 181.086 168.741 178.883 166.583 176.679C165.977 176.061 165.371 175.442 164.765 174.823C164.652 174.707 164.429 174.8 164.544 174.917Z"
      fill="#D85A50" />
    <path
      d="M165.318 170.92C167.844 173.742 170.393 176.553 172.966 179.352C173.691 180.141 174.419 180.93 175.148 181.718C175.258 181.837 175.481 181.742 175.37 181.623C172.785 178.831 170.223 176.027 167.684 173.212C166.968 172.417 166.253 171.622 165.54 170.825C165.432 170.705 165.209 170.799 165.318 170.92Z"
      fill="#D85A50" />
    <path
      d="M166.178 167.054C168.811 169.777 171.406 172.523 173.959 175.29C174.675 176.065 175.387 176.842 176.097 177.621C176.205 177.74 176.428 177.647 176.318 177.527C173.787 174.748 171.216 171.99 168.605 169.255C167.873 168.488 167.138 167.723 166.4 166.96C166.288 166.843 166.065 166.937 166.178 167.054Z"
      fill="#D85A50" />
    <path
      d="M167.291 162.687C169.621 165.065 171.95 167.444 174.28 169.823C174.938 170.495 175.596 171.167 176.254 171.839C176.367 171.955 176.59 171.861 176.476 171.745C174.146 169.366 171.817 166.987 169.488 164.608C168.829 163.936 168.171 163.264 167.513 162.592C167.4 162.476 167.177 162.57 167.291 162.687Z"
      fill="#D85A50" />
    <path
      d="M168.757 158.872C170.419 160.932 172.267 162.909 174.281 164.778C174.853 165.31 175.44 165.833 176.039 166.347C176.166 166.457 176.342 166.315 176.215 166.206C174.119 164.407 172.18 162.497 170.422 160.494C169.926 159.928 169.445 159.356 168.978 158.777C168.878 158.653 168.656 158.747 168.757 158.872Z"
      fill="#D85A50" />
  </g>
  <path
    d="M165.659 158.771L157.355 179.688L151.851 178.925C151.851 178.925 155.761 167.616 159.723 162.121C160.484 161.066 161.533 159.687 162.159 158.879C162.483 158.462 163.364 158.085 163.844 158.425L165.659 158.771Z"
    fill="#D85A50" />
  <mask id="mask13_5077_108182" style="mask-type:luminance" maskUnits="userSpaceOnUse" x="151" y="158" width="15"
    height="22">
    <path
      d="M165.649 158.783L157.345 179.7L151.841 178.936C151.841 178.936 155.751 167.628 159.714 162.133C160.474 161.078 161.523 159.699 162.149 158.891C162.473 158.474 163.354 158.097 163.834 158.436L165.649 158.783Z"
      fill="white" />
  </mask>
  <g mask="url(#mask13_5077_108182)">
    <path
      d="M151.866 175.37C153.128 177.103 154.389 178.835 155.65 180.568C155.743 180.695 155.964 180.6 155.872 180.473C154.611 178.74 153.349 177.008 152.088 175.275C151.995 175.148 151.774 175.243 151.866 175.37Z"
      fill="#D85A50" />
    <path
      d="M153.156 172.313C154.437 174.225 155.765 176.123 157.139 178.002C157.53 178.538 157.926 179.072 158.325 179.605C158.42 179.732 158.641 179.637 158.547 179.51C157.147 177.641 155.792 175.754 154.485 173.85C154.111 173.307 153.743 172.763 153.377 172.218C153.291 172.088 153.069 172.184 153.156 172.313Z"
      fill="#D85A50" />
    <path
      d="M154.552 169.079C155.943 170.809 157.263 172.571 158.504 174.362C158.856 174.869 159.201 175.378 159.54 175.889C159.627 176.019 159.848 175.923 159.762 175.794C158.564 173.989 157.289 172.21 155.938 170.462C155.556 169.967 155.167 169.475 154.773 168.985C154.674 168.86 154.451 168.954 154.552 169.079Z"
      fill="#D85A50" />
    <path
      d="M156.382 165.99C157.739 167.743 159.096 169.498 160.454 171.251C160.551 171.377 160.773 171.282 160.675 171.156C159.318 169.403 157.961 167.649 156.604 165.895C156.507 165.769 156.285 165.864 156.382 165.99Z"
      fill="#D85A50" />
    <path
      d="M158.155 162.917C159.475 164.708 160.795 166.499 162.116 168.29C162.21 168.417 162.432 168.321 162.338 168.195C161.018 166.404 159.698 164.613 158.377 162.822C158.283 162.694 158.061 162.79 158.155 162.917Z"
      fill="#D85A50" />
    <path
      d="M160.258 160.205C161.412 161.712 162.567 163.219 163.721 164.726C163.818 164.852 164.04 164.758 163.943 164.631C162.789 163.125 161.635 161.618 160.48 160.111C160.383 159.984 160.161 160.079 160.258 160.205Z"
      fill="#D85A50" />
    <path
      d="M162.302 158.08C162.838 158.768 164.217 160.51 164.753 161.197C164.851 161.323 165.072 161.228 164.975 161.103C164.439 160.415 163.06 158.673 162.524 157.985C162.426 157.859 162.205 157.954 162.302 158.08Z"
      fill="#D85A50" />
    <path
      d="M163.048 178.829C164.531 180.675 166.176 182.449 167.966 184.131C168.087 184.244 168.261 184.102 168.142 183.99C166.368 182.323 164.739 180.564 163.27 178.734C163.169 178.61 162.948 178.704 163.048 178.829Z"
      fill="#D85A50" />
    <path
      d="M164.542 174.929C166.7 177.133 168.858 179.336 171.016 181.54C171.622 182.158 172.228 182.777 172.834 183.396C172.947 183.512 173.171 183.418 173.056 183.302C170.898 181.098 168.74 178.895 166.582 176.691C165.976 176.072 165.37 175.454 164.764 174.834C164.651 174.718 164.428 174.812 164.542 174.929Z"
      fill="#D85A50" />
    <path
      d="M165.292 170.936C167.818 173.758 170.367 176.568 172.94 179.367C173.665 180.157 174.393 180.946 175.122 181.734C175.232 181.852 175.455 181.758 175.344 181.639C172.76 178.847 170.198 176.043 167.658 173.227C166.942 172.433 166.227 171.637 165.514 170.841C165.406 170.721 165.183 170.815 165.292 170.936Z"
      fill="#D85A50" />
  </g>
  <path
    d="M151.509 157.457C158.423 162.105 166.854 165.377 175.052 162.878C180.233 161.299 178.061 153.201 172.829 154.796C166.708 156.661 161.013 153.921 155.898 150.482C151.276 147.375 146.911 154.365 151.509 157.457Z"
    fill="#E66E60" />
  <path
    d="M151.7 156.698C158.653 161.21 167.095 164.443 175.218 162.21C180.35 160.799 178.067 153.098 172.883 154.523C166.818 156.19 161.108 153.504 155.964 150.166C151.316 147.151 147.077 153.697 151.7 156.698Z"
    fill="#E66E60" />
  <path d="M127.69 202.246H188.138V175.597H127.69V202.246Z" fill="#F2E2C8" />
  <path d="M127.672 184.641H188.481V176.848H127.672V184.641Z" fill="#DDCDB6" />
  <path d="M124.786 181.831H191.749L188.205 172.48H129.039L124.786 181.831Z" fill="#F2E2C8" />
  <path d="M51.8304 188.418H95.3162L95.3162 126.043H51.8304L51.8304 188.418Z" fill="#EDF8F6" />
  <g opacity="0.48">
    <path
      d="M93.3337 184.323C94.4444 180.936 92.8165 177.099 90.3286 174.687C87.8407 172.275 84.6292 170.942 81.5659 169.467C78.5026 167.993 75.3945 166.216 73.4871 163.262C70.6421 158.855 71.1166 152.941 69.3502 147.931C66.8773 140.916 62.7697 137.732 56.7383 133.9C56.4604 133.723 52.9452 131.968 52.6246 132.017C51.9319 132.124 52.6591 133.528 52.6894 134.275C53.3395 150.494 51.9669 169.35 52.6164 185.568C65.4372 186.182 78.0666 185.16 92.0357 185.773"
      fill="#D5E6E4" />
  </g>
  <g opacity="0.48">
    <path
      d="M52.1223 164.026C52.9777 163.817 53.8665 163.703 54.7811 163.703C61.3436 163.703 66.6637 169.386 66.6637 176.396C66.6637 180.712 64.6452 184.522 61.5639 186.815C58.7234 186.847 55.884 186.965 53.0503 187.174C52.7409 179.458 52.4316 171.742 52.1223 164.026Z"
      fill="#D5E6E4" />
  </g>
  <path opacity="0.48"
    d="M92.6141 137.992C93.2111 137.992 93.7922 138.063 94.3532 138.192V155.438C93.7922 155.566 93.2111 155.637 92.6141 155.637C88.0526 155.637 84.3547 151.687 84.3547 146.814C84.3547 141.942 88.0526 137.992 92.6141 137.992Z"
    fill="#D5E6E4" />
  <path d="M50.5286 123.891V188.736H95.7369V123.891H50.5286ZM53.4143 128.03H92.8512V184.597H53.4143V128.03Z"
    fill="#8FC6C1" />
  <path
    d="M135.973 120.663C136.529 121.777 137.641 123.077 138.938 124.039C140.121 124.915 141.434 125.836 142.888 125.799C144.508 125.759 145.769 124.551 146.862 123.42C152.139 117.959 157.416 112.499 162.694 107.039C154.712 107.869 146.464 108.781 139.648 112.733C138.408 113.451 137.199 114.296 136.437 115.491C135.676 116.686 134.971 118.987 135.713 120.252L135.973 120.663Z"
    fill="#6EA652" />
  <path
    d="M130.967 142.289C130.865 140.504 130.954 138.707 131.182 136.929C131.427 135.153 131.83 133.399 132.38 131.693C133.483 128.28 135.221 125.09 137.435 122.308C139.681 119.552 142.393 117.208 145.406 115.414C146.914 114.52 148.49 113.752 150.114 113.123C151.744 112.51 153.415 112.015 155.116 111.695C153.44 112.133 151.793 112.675 150.206 113.366C148.613 114.04 147.072 114.841 145.607 115.767C142.675 117.61 140.007 119.913 137.83 122.649C135.62 125.356 133.918 128.493 132.751 131.827C131.584 135.163 130.984 138.716 130.967 142.289Z"
    fill="#83BA63" />
  <path d="M138.379 202.748H119.313L113.271 142.367H143.817L138.379 202.748Z" fill="#CEBBA1" />
  <path d="M145.901 141.305H111.188V144.581H145.901V141.305Z" fill="#DDCDB6" />
  <path
    d="M103.356 166.678C101.849 155.919 100.369 144.737 103.41 134.34C103.761 133.138 104.197 131.911 105.053 131.03C106.214 129.835 107.947 129.482 109.575 129.469C113.953 129.435 118.303 131.568 121.08 135.112C122.106 136.421 122.942 137.968 123.077 139.655C123.261 141.949 122.114 144.167 120.588 145.824C119.062 147.481 117.167 148.703 115.404 150.077C109.987 154.299 105.717 160.115 103.212 166.681"
    fill="#83BA63" />
  <path
    d="M103.952 163.626C104.026 159.244 104.64 154.869 105.723 150.619C106.255 148.491 106.945 146.407 107.727 144.362C108.525 142.325 109.382 140.309 110.455 138.393C111.552 136.506 112.9 134.69 114.727 133.454C116.523 132.186 118.816 131.689 120.948 132.079C123.087 132.434 125.082 133.654 126.364 135.445C127.644 137.223 128.314 139.471 128.124 141.66C128.197 139.469 127.477 137.285 126.164 135.604C124.877 133.897 122.94 132.777 120.887 132.483C118.837 132.177 116.688 132.629 114.986 133.857C113.255 135.045 111.96 136.808 110.898 138.663C108.815 142.434 107.276 146.543 106.102 150.727C104.948 154.925 104.238 159.256 103.952 163.626Z"
    fill="#6EA652" />
  <path
    d="M127.623 121.777C126.931 123.274 125.558 124.987 123.963 126.219C122.508 127.342 120.893 128.517 119.118 128.362C117.139 128.189 115.613 126.432 114.291 124.793C107.91 116.88 101.528 108.968 95.1465 101.055C104.886 102.776 114.948 104.631 123.227 110.574C124.732 111.655 126.2 112.907 127.116 114.61C128.032 116.314 128.866 119.538 127.946 121.23L127.623 121.777Z"
    fill="#6EA652" />
  <path
    d="M129.586 142.14C129.584 140.283 129.473 138.429 129.211 136.598C128.964 134.766 128.587 132.954 128.078 131.184C127.067 127.645 125.581 124.245 123.581 121.193C121.616 118.119 119.137 115.403 116.316 113.143C114.907 112.011 113.403 111.001 111.825 110.131C110.253 109.244 108.599 108.517 106.897 107.922C108.634 108.402 110.318 109.085 111.94 109.899C113.555 110.729 115.099 111.71 116.555 112.817C119.463 115.038 121.98 117.8 124.009 120.897C126.004 124.019 127.517 127.468 128.458 131.073C129.399 134.677 129.805 138.43 129.586 142.14Z"
    fill="#83BA63" />
  <path
    d="M142.599 138.632C140.477 137.746 138.156 140.063 138.173 142.32C138.19 144.576 139.678 146.544 141.098 148.329C144.302 152.357 147.506 156.385 150.709 160.412C154.426 153.353 152.631 143.888 146.562 138.545C145.246 137.386 142.593 136.784 142.213 138.469"
    fill="#6EA652" />
  <path
    d="M133.684 141.317C133.846 140.761 134.173 140.268 134.545 139.833C134.924 139.403 135.349 139.011 135.816 138.68C136.743 137.992 137.907 137.661 139.053 137.66C140.207 137.655 141.351 138.016 142.335 138.635C143.335 139.254 144.118 140.133 144.844 141.026C145.567 141.93 146.167 142.933 146.662 143.989C147.132 145.062 147.543 146.12 147.933 147.212C148.311 148.302 148.65 149.412 148.909 150.54C149.159 151.67 149.334 152.817 149.417 153.969C149.033 151.693 148.394 149.487 147.546 147.365C147.124 146.31 146.703 145.225 146.233 144.206C145.75 143.188 145.126 142.246 144.452 141.352C143.762 140.474 143.015 139.617 142.097 139.037C141.18 138.454 140.125 138.09 139.045 138.042C137.965 137.998 136.869 138.27 135.941 138.88C135.019 139.475 134.13 140.251 133.684 141.317Z"
    fill="#83BA63" />
  <path d="M27.7128 187.348H36.8384L36.8384 139.501H27.7128L27.7128 187.348Z" fill="#6EA652" />
  <path
    d="M29.6416 181.565C29.6416 180.057 30.8238 178.836 32.2813 178.836C33.7394 178.836 34.9211 180.057 34.9211 181.565C34.9211 183.072 33.7394 184.293 32.2813 184.293C30.8238 184.294 29.6416 183.072 29.6416 181.565Z"
    fill="white" />
  <path
    d="M30.2161 181.56C30.2161 180.384 31.1389 179.43 32.2768 179.43C33.4147 179.43 34.3375 180.383 34.3375 181.56C34.3375 182.736 33.4147 183.69 32.2768 183.69C31.1383 183.69 30.2161 182.737 30.2161 181.56Z"
    fill="#38303B" />
  <path d="M30.3515 174.785H34.2383L34.2383 141.421H30.3515L30.3515 174.785Z" fill="white" />
  <path
    d="M32.9531 142.598L33.0419 146.49L33.0931 150.382L33.1359 158.166L33.0936 165.95L33.0425 169.842L32.9531 173.734L32.8632 169.842L32.8121 165.95L32.7703 158.166L32.8126 150.382L32.8637 146.49L32.9531 142.598Z"
    fill="#AAAAAA" />
  <path
    d="M31.5708 142.598L31.6601 146.49L31.7113 150.382L31.7536 158.166L31.7118 165.95L31.6606 169.842L31.5708 173.734L31.4814 169.842L31.4303 165.95L31.3879 158.166L31.4308 150.382L31.4819 146.49L31.5708 142.598Z"
    fill="#AAAAAA" />
  <path d="M17.6849 192.051H27.6941L27.6941 139.571H17.6849L17.6849 192.051Z" fill="#E66E60" />
  <path
    d="M19.8159 185.712C19.8159 184.059 21.1124 182.719 22.7114 182.719C24.3105 182.719 25.6069 184.059 25.6069 185.712C25.6069 187.365 24.3105 188.705 22.7114 188.705C21.1118 188.705 19.8159 187.365 19.8159 185.712Z"
    fill="white" />
  <path
    d="M22.7067 188.052C23.9551 188.052 24.9671 187.006 24.9671 185.715C24.9671 184.425 23.9551 183.379 22.7067 183.379C21.4583 183.379 20.4463 184.425 20.4463 185.715C20.4463 187.006 21.4583 188.052 22.7067 188.052Z"
    fill="#38303B" />
  <path d="M20.5571 178.27H24.8201L24.8201 141.675H20.5571L20.5571 178.27Z" fill="white" />
  <path
    d="M23.4748 142.984L23.5637 147.254L23.6148 151.522L23.6572 160.06L23.6153 168.598L23.5642 172.867L23.4748 177.136L23.385 172.867L23.3338 168.598L23.292 160.06L23.3343 151.522L23.3855 147.254L23.4748 142.984Z"
    fill="#AAAAAA" />
  <path
    d="M21.872 142.984L21.9609 147.254L22.012 151.522L22.0549 160.06L22.0125 168.598L21.9614 172.867L21.872 177.136L21.7827 172.867L21.731 168.598L21.6892 160.06L21.7321 151.522L21.7832 147.254L21.872 142.984Z"
    fill="#AAAAAA" />
  <path d="M36.9928 189.359H46.49L46.49 139.563H36.9928L36.9928 189.359Z" fill="#EA9D81" />
  <path
    d="M38.9917 183.348C38.9917 181.779 40.2218 180.508 41.739 180.508C43.2562 180.508 44.4863 181.779 44.4863 183.348C44.4863 184.916 43.2562 186.187 41.739 186.187C40.2218 186.188 38.9917 184.916 38.9917 183.348Z"
    fill="white" />
  <path
    d="M39.606 183.346C39.606 182.122 40.5663 181.129 41.7506 181.129C42.9348 181.129 43.8952 182.122 43.8952 183.346C43.8952 184.57 42.9348 185.563 41.7506 185.563C40.5663 185.563 39.606 184.57 39.606 183.346Z"
    fill="#38303B" />
  <path d="M39.7677 176.277H43.813L43.813 141.554H39.7677L39.7677 176.277Z" fill="white" />
  <path
    d="M42.5293 142.785L42.6181 146.836L42.6692 150.886L42.7121 158.988L42.6698 167.089L42.6186 171.139L42.5293 175.19L42.4394 171.139L42.3883 167.089L42.3464 158.988L42.3893 150.886L42.4404 146.836L42.5293 142.785Z"
    fill="#AAAAAA" />
  <path
    d="M41.0163 142.785L41.1052 146.836L41.1563 150.886L41.1992 158.988L41.1573 167.089L41.1057 171.139L41.0163 175.19L40.927 171.139L40.8758 167.089L40.8335 158.988L40.8764 150.886L40.9275 146.836L41.0163 142.785Z"
    fill="#AAAAAA" />
  <path d="M74.4473 158.828H13.0574V202.304H74.4473V158.828Z" fill="white" />
  <path d="M74.8148 160.859H13.0574V173.572H74.8148V160.859Z" fill="white" />
  <path d="M10.1375 168.997H78.1445L74.5449 153.742H14.457L10.1375 168.997Z" fill="white" />
  <path opacity="0.4"
    d="M78.1319 168.997L74.5323 153.742L71.1221 153.896L73.7073 164.791H60.782L54.22 181.234L58.396 181.337L57.9981 201.995L68.5375 202.2"
    fill="white" />
  <path d="M120.663 170.664H61.1575V202.155H120.663V170.664Z" fill="white" />
  <path d="M121.019 172.137H61.1575V181.345H121.019V172.137Z" fill="white" />
  <path d="M58.3015 178.03H124.22L120.731 166.98H62.4883L58.3015 178.03Z" fill="white" />
  <path d="M13.0856 202.305H74.4756V158.829H13.0856L13.0856 202.305Z" fill="#F2E2C8" />
  <path d="M13.0531 173.574H74.8105V160.862H13.0531V173.574Z" fill="#DDCDB6" />
  <path d="M10.1343 168.997H78.1413L74.5417 153.742H14.4539L10.1343 168.997Z" fill="#F2E2C8" />
  <path opacity="0.4"
    d="M78.1287 168.997L74.5291 153.742L71.119 153.896L73.7041 164.791H60.7788L54.2168 181.234L58.3928 181.337L57.995 201.995L68.5343 202.2"
    fill="#DDCDB6" />
  <path d="M61.1478 202.254H120.653V170.763H61.1478L61.1478 202.254Z" fill="#F2E2C8" />
  <path d="M61.1508 181.445H121.012V172.237H61.1508V181.445Z" fill="#DDCDB6" />
  <path d="M58.2983 178.132H124.217L120.728 167.082H62.4852L58.2983 178.132Z" fill="#F2E2C8" />
</svg>